<?xml version="1.0" encoding="utf-8"?>
<!-- Generator: Adobe Illustrator 18.0.0, SVG Export Plug-In . SVG Version: 6.00 Build 0)  -->
<!DOCTYPE svg PUBLIC "-//W3C//DTD SVG 1.1//EN" "http://www.w3.org/Graphics/SVG/1.1/DTD/svg11.dtd">
<svg version="1.1" id="Layer_1" xmlns="http://www.w3.org/2000/svg" xmlns:xlink="http://www.w3.org/1999/xlink" x="0px" y="0px"
	 width="841.9px" height="595.3px" viewBox="0 0 841.9 595.3" enable-background="new 0 0 841.9 595.3" xml:space="preserve">
<g>
	<linearGradient id="SVGID_1_" gradientUnits="userSpaceOnUse" x1="420.945" y1="595.28" x2="420.945" y2="129.8293">
		<stop  offset="0" style="stop-color:#939598"/>
		<stop  offset="1" style="stop-color:#58595B"/>
	</linearGradient>
	<rect x="0" fill="url(#SVGID_1_)" width="841.9" height="595.3"/>
	<path fill="#44632B" d="M139.4,326.5c187.4-13.9,375.6-13.9,563,0c11.2,0.8,21.9,5.4,30.2,13l107.7,98.8v157H1.5v-157l107.7-98.8
		C117.5,331.9,128.2,327.3,139.4,326.5z"/>
	<path fill="#547535" d="M698.5,355.9c-10.2-7.4-22.5-11.4-35.1-11.4H178.3c-12.6,0-24.9,4-35.1,11.4
		C114.8,376.4,49.9,437,1.5,529.1v66.2h838.8v-68.7C791.7,436,726.5,376.2,698.5,355.9z"/>
	<polygon fill="#FFFFFF" points="1.5,569.8 165.6,353.1 676.3,353.1 840.4,569.8 	"/>
	<path fill="#547535" d="M169.1,360.1C117.9,427.7,66.8,495.2,15.6,562.8c270.2,0,540.5,0,810.7,0
		c-51.2-67.6-102.3-135.1-153.5-202.7C504.9,360.1,337,360.1,169.1,360.1z"/>
	<polygon fill="#08304E" points="672.8,360.1 637.1,360.1 762.1,562.8 826.3,562.8 	"/>
	<polygon fill="#08304E" points="169.1,360.1 204.8,360.1 79.8,562.8 15.6,562.8 	"/>
	<g>
		<g>
			
				<rect x="141.8" y="339.5" transform="matrix(0.8511 0.5251 -0.5251 0.8511 263.4924 -5.9755)" fill="#FFFFFF" width="1" height="243.8"/>
		</g>
		<g>
			
				<rect x="172.7" y="342.9" transform="matrix(0.8753 0.4836 -0.4836 0.8753 244.7444 -26.2202)" fill="#FFFFFF" width="1" height="237"/>
		</g>
		<g>
			
				<rect x="203.7" y="346" transform="matrix(0.8991 0.4378 -0.4378 0.8991 222.6344 -42.803)" fill="#FFFFFF" width="1" height="230.8"/>
		</g>
		<g>
			
				<rect x="234.6" y="348.8" transform="matrix(0.9215 0.3885 -0.3885 0.9215 197.7386 -55.0823)" fill="#FFFFFF" width="1" height="225.2"/>
		</g>
		<g>
			
				<rect x="265.5" y="351.3" transform="matrix(0.9418 0.3361 -0.3361 0.9418 170.5649 -62.5639)" fill="#FFFFFF" width="1" height="220.4"/>
		</g>
		<g>
			
				<rect x="296.5" y="353.4" transform="matrix(0.9598 0.2805 -0.2805 0.9598 141.3743 -64.7748)" fill="#FFFFFF" width="1" height="216.2"/>
		</g>
		<g>
			
				<rect x="327.4" y="355.1" transform="matrix(0.9751 0.2218 -0.2218 0.9751 110.5129 -61.2304)" fill="#FFFFFF" width="1" height="212.8"/>
		</g>
		<g>
			
				<rect x="358.3" y="356.3" transform="matrix(0.9871 0.1603 -0.1603 0.9871 78.5999 -51.5462)" fill="#FFFFFF" width="1" height="210.2"/>
		</g>
		<g>
			
				<rect x="389.3" y="357.2" transform="matrix(0.9953 9.660486e-002 -9.660486e-002 0.9953 46.402 -35.4947)" fill="#FFFFFF" width="1" height="208.5"/>
		</g>
		<g>
			
				<rect x="420.2" y="357.6" transform="matrix(0.9995 3.220984e-002 -3.220984e-002 0.9995 15.0817 -13.3112)" fill="#FFFFFF" width="1" height="207.6"/>
		</g>
		<g>
			
				<rect x="347.4" y="461" transform="matrix(9.693299e-002 0.9953 -0.9953 9.693299e-002 867.1401 -32.781)" fill="#FFFFFF" width="208.5" height="1"/>
		</g>
		<g>
			
				<rect x="377.5" y="461" transform="matrix(0.1602 0.9871 -0.9871 0.1602 860.7503 -88.812)" fill="#FFFFFF" width="210.2" height="1"/>
		</g>
		<g>
			
				<rect x="407.1" y="461" transform="matrix(0.2216 0.9751 -0.9751 0.2216 849.7003 -141.5385)" fill="#FFFFFF" width="212.8" height="1"/>
		</g>
		<g>
			
				<rect x="436.3" y="461" transform="matrix(0.2804 0.9599 -0.9599 0.2804 834.6943 -190.5495)" fill="#FFFFFF" width="216.2" height="1"/>
		</g>
		<g>
			
				<rect x="465.2" y="461" transform="matrix(0.3363 0.9418 -0.9418 0.3363 816.4588 -235.594)" fill="#FFFFFF" width="220.4" height="1"/>
		</g>
		<g>
			
				<rect x="493.7" y="461" transform="matrix(0.3888 0.9213 -0.9213 0.3888 795.7163 -276.57)" fill="#FFFFFF" width="225.2" height="1"/>
		</g>
		<g>
			
				<rect x="521.8" y="461" transform="matrix(0.4378 0.8991 -0.8991 0.4378 773.1426 -313.5009)" fill="#FFFFFF" width="230.8" height="1"/>
		</g>
		<g>
			
				<rect x="549.7" y="461" transform="matrix(0.4832 0.8755 -0.8755 0.4832 749.3477 -346.5185)" fill="#FFFFFF" width="237" height="1"/>
		</g>
		<g>
			
				<rect x="577.2" y="461" transform="matrix(0.525 0.8511 -0.8511 0.525 724.8568 -375.8286)" fill="#FFFFFF" width="243.8" height="1"/>
		</g>
	</g>
	<g>
		<g>
			<g>
				<rect x="700.8" y="466.1" fill="#FFFFFF" width="2" height="1"/>
			</g>
			<g>
				<path fill="#FFFFFF" d="M696.8,467.1h-4v-1h4V467.1z M688.7,467.1h-4v-1h4V467.1z M680.7,467.1h-4v-1h4V467.1z M672.6,467.1h-4
					v-1h4V467.1z M664.6,467.1h-4v-1h4V467.1z M656.5,467.1h-4v-1h4V467.1z M648.5,467.1h-4v-1h4V467.1z M640.4,467.1h-4v-1h4V467.1
					z M632.4,467.1h-4v-1h4V467.1z M624.3,467.1h-4v-1h4V467.1z M616.2,467.1h-4v-1h4V467.1z M608.2,467.1h-4v-1h4V467.1z
					 M600.1,467.1h-4v-1h4V467.1z M592.1,467.1h-4v-1h4V467.1z M584,467.1h-4v-1h4V467.1z M576,467.1h-4v-1h4V467.1z M567.9,467.1
					h-4v-1h4V467.1z M559.9,467.1h-4v-1h4V467.1z M551.8,467.1h-4v-1h4V467.1z M543.8,467.1h-4v-1h4V467.1z M535.7,467.1h-4v-1h4
					V467.1z M527.7,467.1h-4v-1h4V467.1z M519.6,467.1h-4v-1h4V467.1z M511.5,467.1h-4v-1h4V467.1z M503.5,467.1h-4v-1h4V467.1z
					 M495.4,467.1h-4v-1h4V467.1z M487.4,467.1h-4v-1h4V467.1z M479.3,467.1h-4v-1h4V467.1z M471.3,467.1h-4v-1h4V467.1z
					 M463.2,467.1h-4v-1h4V467.1z M455.2,467.1h-4v-1h4V467.1z M447.1,467.1h-4v-1h4V467.1z M439.1,467.1h-4v-1h4V467.1z M431,467.1
					h-4v-1h4V467.1z M423,467.1h-4v-1h4V467.1z M414.9,467.1h-4v-1h4V467.1z M406.9,467.1h-4v-1h4V467.1z M398.8,467.1h-4v-1h4
					V467.1z M390.7,467.1h-4v-1h4V467.1z M382.7,467.1h-4v-1h4V467.1z M374.6,467.1h-4v-1h4V467.1z M366.6,467.1h-4v-1h4V467.1z
					 M358.5,467.1h-4v-1h4V467.1z M350.5,467.1h-4v-1h4V467.1z M342.4,467.1h-4v-1h4V467.1z M334.4,467.1h-4v-1h4V467.1z
					 M326.3,467.1h-4v-1h4V467.1z M318.3,467.1h-4v-1h4V467.1z M310.2,467.1h-4v-1h4V467.1z M302.2,467.1h-4v-1h4V467.1z
					 M294.1,467.1h-4v-1h4V467.1z M286,467.1h-4v-1h4V467.1z M278,467.1h-4v-1h4V467.1z M269.9,467.1h-4v-1h4V467.1z M261.9,467.1
					h-4v-1h4V467.1z M253.8,467.1h-4v-1h4V467.1z M245.8,467.1h-4v-1h4V467.1z M237.7,467.1h-4v-1h4V467.1z M229.7,467.1h-4v-1h4
					V467.1z M221.6,467.1h-4v-1h4V467.1z M213.6,467.1h-4v-1h4V467.1z M205.5,467.1h-4v-1h4V467.1z M197.5,467.1h-4v-1h4V467.1z
					 M189.4,467.1h-4v-1h4V467.1z M181.4,467.1h-4v-1h4V467.1z M173.3,467.1h-4v-1h4V467.1z M165.2,467.1h-4v-1h4V467.1z
					 M157.2,467.1h-4v-1h4V467.1z M149.1,467.1h-4v-1h4V467.1z"/>
			</g>
			<g>
				<rect x="139.1" y="466.1" fill="#FFFFFF" width="2" height="1"/>
			</g>
		</g>
		<g>
			<g>
				<rect x="685.7" y="442.4" fill="#FFFFFF" width="2" height="1"/>
			</g>
			<g>
				<path fill="#FFFFFF" d="M681.7,443.4h-4v-1h4V443.4z M673.7,443.4h-4v-1h4V443.4z M665.8,443.4h-4v-1h4V443.4z M657.8,443.4h-4
					v-1h4V443.4z M649.8,443.4h-4v-1h4V443.4z M641.9,443.4h-4v-1h4V443.4z M633.9,443.4h-4v-1h4V443.4z M625.9,443.4h-4v-1h4V443.4
					z M618,443.4h-4v-1h4V443.4z M610,443.4h-4v-1h4V443.4z M602.1,443.4h-4v-1h4V443.4z M594.1,443.4h-4v-1h4V443.4z M586.1,443.4
					h-4v-1h4V443.4z M578.2,443.4h-4v-1h4V443.4z M570.2,443.4h-4v-1h4V443.4z M562.3,443.4h-4v-1h4V443.4z M554.3,443.4h-4v-1h4
					V443.4z M546.3,443.4h-4v-1h4V443.4z M538.4,443.4h-4v-1h4V443.4z M530.4,443.4h-4v-1h4V443.4z M522.5,443.4h-4v-1h4V443.4z
					 M514.5,443.4h-4v-1h4V443.4z M506.5,443.4h-4v-1h4V443.4z M498.6,443.4h-4v-1h4V443.4z M490.6,443.4h-4v-1h4V443.4z
					 M482.6,443.4h-4v-1h4V443.4z M474.7,443.4h-4v-1h4V443.4z M466.7,443.4h-4v-1h4V443.4z M458.8,443.4h-4v-1h4V443.4z
					 M450.8,443.4h-4v-1h4V443.4z M442.8,443.4h-4v-1h4V443.4z M434.9,443.4h-4v-1h4V443.4z M426.9,443.4h-4v-1h4V443.4z M419,443.4
					h-4v-1h4V443.4z M411,443.4h-4v-1h4V443.4z M403,443.4h-4v-1h4V443.4z M395.1,443.4h-4v-1h4V443.4z M387.1,443.4h-4v-1h4V443.4z
					 M379.1,443.4h-4v-1h4V443.4z M371.2,443.4h-4v-1h4V443.4z M363.2,443.4h-4v-1h4V443.4z M355.3,443.4h-4v-1h4V443.4z
					 M347.3,443.4h-4v-1h4V443.4z M339.3,443.4h-4v-1h4V443.4z M331.4,443.4h-4v-1h4V443.4z M323.4,443.4h-4v-1h4V443.4z
					 M315.5,443.4h-4v-1h4V443.4z M307.5,443.4h-4v-1h4V443.4z M299.5,443.4h-4v-1h4V443.4z M291.6,443.4h-4v-1h4V443.4z
					 M283.6,443.4h-4v-1h4V443.4z M275.6,443.4h-4v-1h4V443.4z M267.7,443.4h-4v-1h4V443.4z M259.7,443.4h-4v-1h4V443.4z
					 M251.8,443.4h-4v-1h4V443.4z M243.8,443.4h-4v-1h4V443.4z M235.8,443.4h-4v-1h4V443.4z M227.9,443.4h-4v-1h4V443.4z
					 M219.9,443.4h-4v-1h4V443.4z M212,443.4h-4v-1h4V443.4z M204,443.4h-4v-1h4V443.4z M196,443.4h-4v-1h4V443.4z M188.1,443.4h-4
					v-1h4V443.4z M180.1,443.4h-4v-1h4V443.4z M172.2,443.4h-4v-1h4V443.4z M164.2,443.4h-4v-1h4V443.4z"/>
			</g>
			<g>
				<rect x="154.2" y="442.4" fill="#FFFFFF" width="2" height="1"/>
			</g>
		</g>
	</g>
	<g>
		<g>
			<path fill="#FFFFFF" d="M90.9,510.6c0.7-1.1,1.1-1.7,1.8-2.8c1.1,0,1.7,0,2.8,0c0.7-1.1,1.1-1.7,1.8-2.8c-2.2,0-3.3,0-5.5,0
				c-0.9,1.3-1.3,2-2.2,3.4c-2.4,0.9-3.6,1.4-6.1,2.3c-3.2,0-4.8,0-8,0c-1.2-0.9-1.7-1.3-2.9-2.2c1.2-1.6,1.8-2.4,3-3.9
				c2.4-0.9,3.7-1.4,6.1-2.3c1.5,0,2.3,0,3.8,0c-0.8,1.1-1.2,1.7-2,2.8c-1.1,0-1.7,0-2.8,0c-0.8,1.1-1.2,1.7-2,2.8
				c2.2,0,3.4,0,5.6,0c0.9-1.3,1.4-2,2.3-3.3c2.4-0.9,3.6-1.4,6-2.3c3.1,0,4.6,0,7.6,0c1.2,0.9,1.8,1.3,3,2.2
				c-1,1.6-1.4,2.4-2.4,3.9c-2.3,0.9-3.5,1.4-5.9,2.3C93.3,510.6,92.5,510.6,90.9,510.6z"/>
			<path fill="#FFFFFF" d="M78.8,500.2c1.6-2.2,2.4-3.2,4.1-5.4c2.1,0,3.1,0,5.2,0c-0.3,0.5-0.5,0.7-0.9,1.2c5.3,0,10.6,0,15.8,0
				c0.7-1.1,1.1-1.7,1.8-2.8c-5.2,0-10.4,0-15.6,0c-0.3,0.5-0.5,0.7-0.9,1.2c-2.1,0-3.1,0-5.2,0c1.6-2.2,2.4-3.2,4.1-5.4
				c2,0,3.1,0,5.1,0c-0.4,0.6-0.6,0.8-1,1.4c5.5,0,10.9,0,16.4-0.1c1.1,0.9,1.6,1.3,2.7,2.2c-1,1.6-1.4,2.4-2.4,3.9
				c-2.2,0.9-3.4,1.4-5.7,2.3c-5.7,0-11.4,0-17.2,0.1c-0.4,0.6-0.6,0.8-1,1.4C82,500.2,80.9,500.2,78.8,500.2z"/>
			<path fill="#FFFFFF" d="M113.9,486.9c-2,0-3,0-5,0c0.4-0.6,0.5-0.8,0.9-1.4c-6,0-9,0-15,0c-0.4,0.6-0.6,0.8-1,1.4c-2,0-3,0-5,0
				c2.3-3,3.4-4.5,5.7-7.6c2.2-0.9,3.3-1.4,5.5-2.3c2.7,0,4,0,6.7,0c0.9,0.9,1.4,1.3,2.3,2.2c-0.9,1.3-1.3,2-2.2,3.4
				c2,0,2.9,0,4.9,0c0.4-0.6,0.5-0.8,0.9-1.4c1.9,0,2.9,0,4.9,0C115.9,483.6,115.2,484.7,113.9,486.9z M101.7,482.8
				c0.8-1.1,1.2-1.7,2-2.8c-1.9,0-2.9,0-4.8,0c-0.8,1.1-1.2,1.7-2,2.8C98.8,482.8,99.7,482.8,101.7,482.8z"/>
			<path fill="#FFFFFF" d="M121.1,475.1c-1.9,0-2.8,0-4.7,0c0.4-0.6,0.5-0.8,0.9-1.4c-5.6,0-8.4,0-14,0c-0.4,0.6-0.6,0.8-1,1.4
				c-1.9,0-2.8,0-4.7,0c3-3.9,4.4-5.9,7.4-9.8c2.7,0,4,0,6.6,0c-0.8,1.1-1.2,1.7-2,2.8c-0.9,0-1.4,0-2.3,0c-0.8,1.1-1.2,1.7-2,2.8
				c1.8,0,2.7,0,4.6,0c0.8-1.1,1.2-1.7,2-2.8c1.8,0,2.7,0,4.5,0c-0.7,1.1-1.1,1.7-1.9,2.8c1.8,0,2.7,0,4.6,0
				c0.7-1.1,1.1-1.7,1.8-2.8c-0.9,0-1.4,0-2.3,0c0.7-1.1,1.1-1.7,1.8-2.8c2.7,0,4,0,6.6,0C124.7,469.2,123.5,471.2,121.1,475.1z"/>
			<path fill="#FFFFFF" d="M128.3,463.3c-1.7,0-2.6,0-4.4,0c0.4-0.6,0.5-0.8,0.9-1.4c-5.2,0-7.8,0-13,0c-0.4,0.6-0.6,0.8-1,1.4
				c-1.7,0-2.6,0-4.4,0c2.3-3,3.4-4.5,5.7-7.6c2-0.9,3-1.4,5-2.3c2.3,0,3.4,0,5.7,0c0.3,0.3,0.4,0.5,0.7,0.8
				c0.7-0.3,1.1-0.5,1.8-0.8c2,0,2.9,0,4.9,0c0.4-0.6,0.5-0.8,0.9-1.4c1.6,0,2.4,0,4.1,0c-1.3,2.2-2,3.2-3.3,5.4c-1.7,0-2.5,0-4.2,0
				c0.3-0.5,0.5-0.7,0.8-1.2c-1.7,0-2.5,0-4.2,0c-0.7,1.1-1.1,1.7-1.9,2.8c1.7,0,2.5,0,4.2,0c0.3-0.5,0.5-0.7,0.8-1.2
				c1.7,0,2.5,0,4.2,0C130.3,460.1,129.7,461.2,128.3,463.3z M118.2,459.2c0.8-1.1,1.2-1.7,2-2.8c-1.7,0-2.5,0-4.2,0
				c-0.8,1.1-1.2,1.7-2,2.8C115.6,459.2,116.5,459.2,118.2,459.2z"/>
			<path fill="#FFFFFF" d="M136.4,450.1c-1.6,0-2.4,0-4,0c0.4-0.6,0.5-0.8,0.9-1.4c-4.7,0-7.1,0-11.9,0c-0.4,0.6-0.6,0.8-1,1.4
				c-1.6,0-2.4,0-4,0c2.3-3,3.4-4.5,5.7-7.6c1.9-0.9,2.8-1.4,4.7-2.3c2.1,0,3.1,0,5.2,0c0.1,0.6,0.1,0.8,0.2,1.4
				c0.8-0.6,1.2-0.8,2.1-1.4c2.1,0,3.1,0,5.2,0c0.6,0.9,0.9,1.3,1.6,2.2C139.2,445.6,138.3,447.1,136.4,450.1z M127.4,446
				c0.8-1.1,1.2-1.7,2-2.8c-1.5,0-2.3,0-3.8,0c-0.8,1.1-1.2,1.7-2,2.8C125,446,125.8,446,127.4,446z M135.1,445.9
				c0.7-1.1,1.1-1.7,1.8-2.8c-1.5,0-2.3,0-3.8,0c-0.7,1.1-1.1,1.7-1.9,2.8C132.8,445.9,133.6,445.9,135.1,445.9z"/>
			<path fill="#FFFFFF" d="M143.6,438.3c-1.5,0-2.2,0-3.7,0c0.4-0.6,0.5-0.8,0.9-1.4c-5.1-1.1-7.6-1.7-12.4-2.8
				c0.8-1.1,1.3-1.7,2.1-2.8c5.2-0.9,10.4-1.9,15.7-2.8c0.4-0.6,0.5-0.8,0.9-1.4c1.3,0,2,0,3.3,0c-1.3,2.2-2,3.2-3.3,5.4
				c-1.4,0-2.1,0-3.5,0c0.3-0.5,0.5-0.7,0.8-1.2c-0.8,0.1-1.2,0.2-2,0.4c-0.6,0.8-0.8,1.3-1.4,2.1c0.6,0.1,0.9,0.2,1.5,0.3
				c0.3-0.5,0.5-0.7,0.8-1.2c1.4,0,2.1,0,3.5,0C145.6,435.1,145,436.2,143.6,438.3z M136.6,432.7c0.6,0.1,0.9,0.2,1.5,0.3
				c0.2-0.3,0.3-0.4,0.5-0.7C137.8,432.5,137.4,432.6,136.6,432.7z"/>
			<path fill="#FFFFFF" d="M151.7,425.1c-1.3,0-2,0-3.3,0c0.4-0.6,0.5-0.8,0.9-1.4c-3.9,0-5.9,0-9.8,0c-0.4,0.6-0.6,0.8-1,1.4
				c-1.3,0-2,0-3.3,0c1.7-2.2,2.5-3.4,4.2-5.6c1.3,0,1.9,0,3.1,0c-0.4,0.6-0.6,0.8-1,1.4c3.8,0,5.7,0,9.5,0c0.7-1.1,1.1-1.7,1.8-2.8
				c-0.6,0-0.9,0-1.5,0c0.7-1.1,1.1-1.7,1.8-2.8c1.8,0,2.7,0,4.5,0C155.3,419.2,154.1,421.2,151.7,425.1z"/>
			<path fill="#FFFFFF" d="M159,413.3c-1.2,0-1.8,0-3,0c0.4-0.6,0.5-0.8,0.9-1.4c-3.5,0-5.3,0-8.8,0c-0.4,0.6-0.6,0.8-1,1.4
				c-1.2,0-1.8,0-3,0c1.7-2.2,2.5-3.4,4.2-5.6c1.1,0,1.7,0,2.8,0c-0.4,0.6-0.6,0.8-1,1.4c3.4,0,5.1,0,8.5,0c0.7-1.1,1.1-1.7,1.8-2.8
				c-0.6,0-0.8,0-1.4,0c0.7-1.1,1.1-1.7,1.8-2.8c1.6,0,2.4,0,4,0C162.6,407.4,161.4,409.4,159,413.3z"/>
		</g>
	</g>
	<g>
		<g>
			<path fill="#FFFFFF" d="M678.8,399.8c0.8,1.1,1.1,1.7,1.9,2.9c-0.8,0-1.2,0-2,0c0.7,1.1,1.1,1.7,1.8,2.9c1.6,0,2.4,0,4,0
				c-0.9-1.4-1.4-2.1-2.3-3.4c0.6-0.9,0.9-1.4,1.5-2.3c2.2,0,3.2,0,5.4,0c1.9,0.9,2.9,1.4,4.8,2.3c1.2,1.6,1.8,2.4,3,4
				c-0.6,0.9-0.9,1.4-1.5,2.3c-1.1,0-1.7,0-2.9,0c-0.8-1.1-1.2-1.7-2.1-2.9c0.8,0,1.2,0,2,0c-0.8-1.1-1.3-1.7-2.1-2.9
				c-1.6,0-2.4,0-3.9,0c1,1.4,1.4,2,2.4,3.4c-0.6,0.9-1,1.4-1.6,2.3c-2.3,0-3.4,0-5.7,0c-1.9-0.9-2.8-1.4-4.7-2.3
				c-1-1.6-1.5-2.4-2.5-4c0.7-0.9,1-1.4,1.7-2.3C677.2,399.8,677.7,399.8,678.8,399.8z"/>
			<path fill="#FFFFFF" d="M700.4,410.5c1.7,2.2,2.5,3.3,4.2,5.5c-1.7,0-2.6,0-4.3,0c-0.4-0.5-0.5-0.7-0.9-1.2c-5.1,0-7.7,0-12.8,0
				c0.7,1.1,1.1,1.7,1.8,2.9c5.2,0,7.9,0,13.1,0c-0.4-0.5-0.5-0.7-0.9-1.2c1.7,0,2.6,0,4.3,0c1.7,2.2,2.5,3.3,4.2,5.5
				c-1.8,0-2.7,0-4.5,0c-0.4-0.6-0.6-0.9-1-1.4c-5.7,0-8.5,0-14.2,0c-2-0.9-3-1.4-5-2.3c-1-1.6-1.5-2.4-2.5-4
				c0.8-0.9,1.2-1.4,1.9-2.3c5.4,0,8.1,0,13.4,0c-0.4-0.6-0.6-0.9-1-1.4C697.9,410.5,698.7,410.5,700.4,410.5z"/>
			<path fill="#FFFFFF" d="M687.9,424.1c1.8,0,2.7,0,4.5,0c0.4,0.6,0.6,0.9,0.9,1.4c5.5,0,8.3,0,13.7,0c-0.4-0.6-0.6-0.9-1-1.4
				c1.8,0,2.7,0,4.5,0c2.3,3.1,3.5,4.7,5.9,7.8c-0.8,0.9-1.3,1.4-2.1,2.3c-2.7,0-4.1,0-6.8,0c-2.2-0.9-3.3-1.4-5.4-2.3
				c-0.9-1.4-1.4-2.1-2.3-3.4c-1.9,0-2.8,0-4.7,0c0.4,0.6,0.6,0.9,0.9,1.4c-1.9,0-2.8,0-4.7,0C690,427.5,689.3,426.4,687.9,424.1z
				 M704.6,428.4c0.8,1.1,1.2,1.7,2,2.9c1.9,0,2.8,0,4.7,0c-0.8-1.1-1.3-1.7-2.1-2.9C707.4,428.4,706.4,428.4,704.6,428.4z"/>
			<path fill="#FFFFFF" d="M695.4,436.2c2,0,2.9,0,4.9,0c0.4,0.6,0.6,0.9,0.9,1.4c5.9,0,8.9,0,14.8,0c-0.4-0.6-0.6-0.9-1-1.4
				c2,0,2.9,0,4.9,0c3,4,4.6,6,7.6,10.1c-3.1,0-4.6,0-7.7,0c-0.8-1.1-1.2-1.7-2.1-2.9c1,0,1.5,0,2.5,0c-0.8-1.1-1.3-1.7-2.1-2.9
				c-2,0-3,0-5,0c0.8,1.1,1.2,1.7,2,2.9c-2,0-3.1,0-5.1,0c-0.8-1.1-1.2-1.7-1.9-2.9c-2,0-3,0-5,0c0.7,1.1,1.1,1.7,1.8,2.9
				c1,0,1.5,0,2.5,0c0.8,1.1,1.1,1.7,1.9,2.9c-3.1,0-4.6,0-7.7,0C699.1,442.2,697.8,440.2,695.4,436.2z"/>
			<path fill="#FFFFFF" d="M702.8,448.3c2.1,0,3.1,0,5.2,0c0.4,0.6,0.6,0.9,0.9,1.4c5.3,0,10.5,0,15.8,0c-0.4-0.6-0.6-0.9-1-1.4
				c2.1,0,3.1,0,5.2,0c2.3,3.1,3.5,4.7,5.9,7.8c-1,0.9-1.6,1.4-2.7,2.3c-3.1,0-4.6,0-7.7,0c-0.9-0.3-1.3-0.5-2.2-0.9
				c-0.4,0.3-0.6,0.5-1.1,0.9c-2.6,0-4,0-6.6,0c0.4,0.6,0.6,0.9,0.9,1.4c-2.2,0-3.3,0-5.5,0c-1.4-2.2-2-3.3-3.4-5.5
				c2.2,0,3.2,0,5.4,0c0.3,0.5,0.5,0.7,0.8,1.2c2.2,0,3.3,0,5.4,0c-0.8-1.1-1.2-1.7-1.9-2.9c-2.1,0-3.2,0-5.3,0
				c0.3,0.5,0.5,0.7,0.8,1.2c-2.2,0-3.2,0-5.4,0C704.9,451.6,704.2,450.5,702.8,448.3z M721.5,452.6c0.8,1.1,1.2,1.7,2,2.9
				c2.2,0,3.3,0,5.4,0c-0.8-1.1-1.3-1.7-2.1-2.9C724.7,452.6,723.6,452.6,721.5,452.6z"/>
			<path fill="#FFFFFF" d="M711.1,461.8c2.2,0,3.4,0,5.6,0c0.4,0.6,0.6,0.9,0.9,1.4c5.6,0,11.3,0,16.9,0c-0.4-0.6-0.6-0.9-1-1.4
				c2.2,0,3.4,0,5.6,0c2.3,3.1,3.5,4.7,5.9,7.8c-1.2,0.9-1.8,1.4-3,2.3c-3.3,0-4.9,0-8.2,0c-1.1-0.6-1.7-0.9-2.8-1.4
				c-0.3,0.6-0.5,0.9-0.8,1.4c-3.3,0-4.9,0-8.2,0c-2.5-0.9-3.7-1.4-6.1-2.3C714,466.5,713.1,464.9,711.1,461.8z M731,466.2
				c0.8,1.1,1.2,1.7,2,2.9c2.3,0,3.5,0,5.8,0c-0.8-1.1-1.3-1.7-2.1-2.9C734.4,466.2,733.3,466.2,731,466.2z M719.5,466.1
				c0.7,1.1,1.1,1.7,1.8,2.9c2.3,0,3.5,0,5.8,0c-0.8-1.1-1.2-1.7-1.9-2.9C723,466.2,721.8,466.2,719.5,466.1z"/>
			<path fill="#FFFFFF" d="M718.6,473.9c2.4,0,3.6,0,5.9,0c0.4,0.6,0.6,0.9,0.9,1.4c8.7,1,17.4,1.9,26.1,2.9
				c0.9,1.1,1.3,1.7,2.2,2.9c-7.6,1-15.2,1.9-22.7,2.8c0.4,0.6,0.6,0.9,0.9,1.4c-2.5,0-3.8,0-6.3,0c-1.4-2.2-2-3.3-3.4-5.5
				c2.4,0,3.7,0,6.1,0c0.3,0.5,0.5,0.7,0.8,1.2c1.1-0.1,1.7-0.2,2.8-0.4c-0.6-0.9-0.8-1.3-1.4-2.2c-1.3-0.1-2-0.2-3.3-0.4
				c0.3,0.5,0.5,0.7,0.8,1.2c-2.4,0-3.7,0-6.1,0C720.6,477.3,720,476.2,718.6,473.9z M740.5,479.7c-1.3-0.1-2-0.2-3.3-0.4
				c0.2,0.3,0.3,0.4,0.5,0.7C738.8,479.9,739.3,479.9,740.5,479.7z"/>
			<path fill="#FFFFFF" d="M726.9,487.5c2.5,0,3.8,0,6.3,0c0.4,0.6,0.6,0.9,0.9,1.4c6.4,0,12.7,0,19.1,0c-0.4-0.6-0.6-0.9-1-1.4
				c2.5,0,3.8,0,6.3,0c1.7,2.3,2.6,3.4,4.3,5.7c-2.6,0-3.9,0-6.5,0c-0.4-0.6-0.6-0.9-1-1.4c-6.4,0-12.9,0-19.3,0
				c0.7,1.1,1.1,1.7,1.8,2.9c1.3,0,2,0,3.3,0c0.8,1.1,1.1,1.7,1.9,2.9c-4,0-5.9,0-9.9,0C730.6,493.5,729.4,491.5,726.9,487.5z"/>
			<path fill="#FFFFFF" d="M734.4,499.6c2.7,0,4,0,6.7,0c0.4,0.6,0.6,0.9,0.9,1.4c6.7,0,13.4,0,20.1,0c-0.4-0.6-0.6-0.9-1-1.4
				c2.7,0,4,0,6.7,0c1.7,2.3,2.6,3.4,4.3,5.7c-2.7,0-4.1,0-6.8,0c-0.4-0.6-0.6-0.9-1-1.4c-6.8,0-13.6,0-20.4,0
				c0.7,1.1,1.1,1.7,1.8,2.9c1.4,0,2.1,0,3.4,0c0.8,1.1,1.1,1.7,1.9,2.9c-4.2,0-6.3,0-10.4,0C738.1,505.6,736.9,503.6,734.4,499.6z"
				/>
		</g>
	</g>
	<g>
		<g>
			<path fill="#E6E7E8" d="M71.7,467.6c-0.1,0-0.2,0-0.3-0.1c-0.4-0.1-0.7-0.5-0.7-0.9v-66.8h2v63.9l16.9-21.2l0-67.2l2,0l0,67.5
				c0,0.2-0.1,0.4-0.2,0.6l-18.9,23.8C72.3,467.5,72,467.6,71.7,467.6z"/>
		</g>
		<g>
			<path fill="#E6E7E8" d="M770.2,467.6c0.1,0,0.2,0,0.3-0.1c0.4-0.1,0.7-0.5,0.7-0.9v-66.8h-2v63.9l-16.9-21.2l0-67.2l-2,0l0,67.5
				c0,0.2,0.1,0.4,0.2,0.6l18.9,23.8C769.6,467.5,769.9,467.6,770.2,467.6z"/>
		</g>
	</g>
	<g>
		<g>
			<path fill="#58595B" d="M838.5,274.3c-278.1-22-560.1-22-838.2,0l-0.5-6c278.4-22,560.8-22,839.2,0L838.5,274.3z"/>
		</g>
		<g>
			<path fill="#58595B" d="M838.5,223.5c-278.1-22-560.1-22-838.2,0l-0.5-6c278.4-22,560.8-22,839.2,0L838.5,223.5z"/>
		</g>
		<g>
			<path fill="#58595B" d="M838.5,172.6c-278.1-22-560.1-22-838.2,0l-0.5-6c278.4-22,560.8-22,839.2,0L838.5,172.6z"/>
		</g>
		<g>
			<path fill="#58595B" d="M838.5,121.8c-278.1-22-560.1-22-838.2,0l-0.5-6c278.4-22,560.8-22,839.2,0L838.5,121.8z"/>
		</g>
		<g>
			<path fill="#58595B" d="M838.5,71C560.4,49,278.3,49,0.2,71l-0.5-6c278.4-22,560.8-22,839.2,0L838.5,71z"/>
		</g>
	</g>
	<g>
		<path fill="#FFFFFF" d="M228,237.8c-5.4,0-9.8-4.2-10-9.6L210.9,44c-0.1-2.7,0.9-5.4,2.8-7.3c1.9-1.9,4.5-3.1,7.2-3.1H621
			c2.7,0,5.3,1.1,7.2,3.1c1.9,1.9,2.9,4.6,2.8,7.3l-7.2,184.3c-0.2,5.4-4.6,9.6-10,9.6H228z"/>
		<path fill="#FFDE17" d="M215.9,43.8L223,228c0.1,2.7,2.3,4.8,5,4.8h385.8c2.7,0,4.9-2.1,5-4.8L626,43.8c0.1-2.8-2.2-5.2-5-5.2
			H220.9C218,38.6,215.8,40.9,215.9,43.8z"/>
		<g>
			<path fill="#6D5700" d="M592.6,97.9l-0.1-0.1l-0.1-0.1c-1.9-1.7-4.3-2.5-6.8-2.5c-0.3,0-0.6,0-1,0l-27.9,2.4v3
				c-1.9-1.6-4.2-2.4-6.6-2.4c-0.3,0-0.6,0-1,0l-17.7,1.6c-2.8,0.2-5.3,1.5-7.2,3.5c-0.6,0.6-1.1,1.3-1.5,2
				c-0.3-0.4-0.7-0.9-1.1-1.3l-0.1-0.1l-0.1-0.1c-1.9-1.7-4.3-2.5-6.8-2.5c-0.3,0-0.6,0-1,0l-27.9,2.4v0l-35.4,3.1v3
				c-1.9-1.6-4.2-2.4-6.6-2.4c-0.3,0-0.6,0-1,0l-17.7,1.6c-2.8,0.2-5.3,1.5-7.2,3.5c-0.6,0.6-1.1,1.3-1.5,2
				c-0.3-0.4-0.7-0.9-1.1-1.3l-0.1-0.1l-0.1-0.1c-1.9-1.7-4.3-2.5-6.8-2.5c-0.3,0-0.6,0-1,0l-27.9,2.4v3c-1.9-1.6-4.2-2.4-6.6-2.4
				c-0.3,0-0.6,0-1,0l-13.3,1.2c-1.6,0.1-3,0.6-4.4,1.3c-1.1-0.4-2.3-0.6-3.5-0.6c-0.3,0-0.7,0-1,0l-13.3,1.2
				c-2.5,0.2-4.8,1.2-6.6,2.9v-2.4l-35.5,3.1v0l-21.3,1.9v31l-17.7,1.6v14.5c0,3,1.2,5.7,3.3,7.6c1.9,1.8,4.3,2.7,6.9,2.7
				c0.3,0,0.6,0,1,0l17.7-1.6c2.8-0.2,5.2-1.5,7.2-3.6c0.6-0.6,1-1.3,1.4-2c0.4,0.5,0.8,0.9,1.2,1.4c1.9,1.8,4.3,2.7,6.9,2.7
				c0.3,0,0.7,0,1,0l17.7-1.6c2.5-0.2,4.7-1.2,6.5-2.9v2.4l53.2-4.7v0l28.9-2.5c2.8-0.2,5.2-1.5,7.2-3.6c0.6-0.6,1-1.3,1.4-2
				c0.4,0.5,0.8,0.9,1.2,1.4c1.9,1.8,4.3,2.7,6.9,2.7c0.3,0,0.7,0,1,0l17.7-1.6c2.8-0.2,5.2-1.5,7.2-3.6c1.9-2.1,2.9-4.6,2.9-7.5
				V128l5.3-0.5v35.5l21.4-1.9v-35.4l5.3-0.5v35.4l39-3.4v-3.1c1.9,1.6,4.2,2.5,6.7,2.5c0.3,0,0.7,0,1,0l17.7-1.6
				c2.5-0.2,4.7-1.2,6.5-2.9v2.4l39-3.4v-45.6C595.8,102.5,594.7,99.9,592.6,97.9z"/>
			<path d="M589,94.3l-0.1-0.1l-0.1-0.1c-1.9-1.7-4.3-2.5-6.8-2.5c-0.3,0-0.6,0-1,0L553.2,94v3c-1.9-1.6-4.2-2.4-6.6-2.4
				c-0.3,0-0.6,0-1,0l-17.7,1.6c-2.8,0.2-5.3,1.5-7.2,3.5c-0.6,0.6-1.1,1.3-1.5,2c-0.3-0.4-0.7-0.9-1.1-1.3l-0.1-0.1l-0.1-0.1
				c-1.9-1.7-4.3-2.5-6.8-2.5c-0.3,0-0.6,0-1,0l-27.9,2.4v0l-35.4,3.1v3c-1.9-1.6-4.2-2.4-6.6-2.4c-0.3,0-0.6,0-1,0l-17.7,1.6
				c-2.8,0.2-5.3,1.5-7.2,3.5c-0.6,0.6-1.1,1.3-1.5,2c-0.3-0.4-0.7-0.9-1.1-1.3l-0.1-0.1l-0.1-0.1c-1.9-1.7-4.3-2.5-6.8-2.5
				c-0.3,0-0.6,0-1,0l-27.9,2.4v3c-1.9-1.6-4.2-2.4-6.6-2.4c-0.3,0-0.6,0-1,0l-13.3,1.2c-1.6,0.1-3,0.6-4.4,1.3
				c-1.1-0.4-2.3-0.6-3.5-0.6c-0.3,0-0.7,0-1,0l-13.3,1.2c-2.5,0.2-4.8,1.2-6.6,2.9v-2.4l-35.5,3.1v0l-21.3,1.9v31l-17.7,1.6V166
				c0,3,1.2,5.7,3.3,7.6c1.9,1.8,4.3,2.7,6.9,2.7c0.3,0,0.6,0,1,0l17.7-1.6c2.8-0.2,5.2-1.5,7.2-3.6c0.6-0.6,1-1.3,1.4-2
				c0.4,0.5,0.8,0.9,1.2,1.4c1.9,1.8,4.3,2.7,6.9,2.7c0.3,0,0.7,0,1,0l17.7-1.6c2.5-0.2,4.7-1.2,6.5-2.9v2.4l53.2-4.7v0l28.9-2.5
				c2.8-0.2,5.2-1.5,7.2-3.6c0.6-0.6,1-1.3,1.4-2c0.4,0.5,0.8,0.9,1.2,1.4c1.9,1.8,4.3,2.7,6.9,2.7c0.3,0,0.7,0,1,0l17.7-1.6
				c2.8-0.2,5.2-1.5,7.2-3.6c1.9-2.1,2.9-4.6,2.9-7.5v-25.3l5.3-0.5v35.5l21.4-1.9v-35.4l5.3-0.5V157l39-3.4v-3.1
				c1.9,1.6,4.2,2.5,6.7,2.5c0.3,0,0.7,0,1,0l17.7-1.6c2.5-0.2,4.7-1.2,6.5-2.9v2.4l39-3.4v-45.6C592.2,98.9,591.1,96.3,589,94.3z"
				/>
			<g>
				<path fill="#FFFFFF" d="M284.6,123.8c0,8.9,0,22.1,0,39.8c0,1.2-0.4,2.3-1.3,3.2c-0.9,1-1.9,1.5-3.1,1.6
					c-4,0.3-9.9,0.9-17.7,1.6c-1.2,0.1-2.3-0.2-3.1-1c-0.9-0.8-1.3-1.8-1.3-3c0-1,0-2.2,0-3.7c0-1.5,0-3.2,0-5.2
					c2-0.2,4.9-0.4,8.8-0.8c0,1,0,2.4,0,4.4c2-0.2,5-0.4,8.9-0.8c0-7.9,0-19.7,0-35.5C277.8,124.4,280.7,124.1,284.6,123.8z"/>
				<path fill="#FFFFFF" d="M320.1,120.7c0,8.9,0,22.1,0,39.8c0,1.2-0.4,2.3-1.3,3.2c-0.9,1-1.9,1.5-3.1,1.6
					c-4,0.3-9.9,0.9-17.7,1.6c-1.2,0.1-2.3-0.2-3.1-1c-0.9-0.8-1.3-1.8-1.3-3c0-4.4,0-9.9,0-16.6c0-6.6,0-14.4,0-23.3
					c2-0.2,4.9-0.4,8.8-0.8c0,7.9,0,19.7,0,35.5c2-0.2,5-0.4,8.9-0.8c0-7.9,0-19.7,0-35.5C313.2,121.3,316.2,121,320.1,120.7z"/>
				<path fill="#FFFFFF" d="M373.3,120.4c0,8.9,0,22.2,0,39.9c-2,0.2-4.9,0.4-8.8,0.8c0-7.9,0-19.7,0-35.5c-2,0.2-4.9,0.4-8.9,0.8
					c0,7.9,0,19.7,0,35.5c-2,0.2-4.9,0.4-8.8,0.8c0-7.9,0-19.7,0-35.5c-2,0.2-4.9,0.4-8.9,0.8c0,7.9,0,19.7,0,35.5
					c-2,0.2-4.9,0.4-8.8,0.8c0-3.3,0-8.3,0-15c0-2.8,0-6.2,0-10.3c0-4.2,0-9,0-14.5c0-1.2,0.4-2.3,1.3-3.2c0.8-0.9,1.9-1.4,3.1-1.5
					c2.9-0.3,7.3-0.6,13.3-1.2c1.2-0.1,2.3,0.2,3.1,1c0.9,0.8,1.3,1.8,1.3,3c0-1.2,0.4-2.3,1.3-3.2c0.9-0.9,1.9-1.4,3.1-1.5
					c3-0.3,7.4-0.6,13.3-1.2c1.2-0.1,2.2,0.2,3.1,1C372.8,118.2,373.3,119.2,373.3,120.4z"/>
				<path fill="#FFFFFF" d="M404.3,135.4c1.2-0.1,2.2,0.2,3.1,1c0.8,0.8,1.3,1.8,1.3,3c0,3,0,7.4,0,13.3c0,1.2-0.4,2.3-1.3,3.2
					c-0.9,1-1.9,1.5-3.1,1.6c-3,0.3-7.4,0.6-13.3,1.2c-2,0.2-4.9,0.4-8.8,0.8c0-2,0-4.9,0-8.8c0-2,0-5,0-8.9c0-2,0-4.9,0-8.8
					c0-1,0-2.2,0-3.7c0-1.5,0-3.2,0-5.2c0-2,0-4.9,0-8.8c2-0.2,4.9-0.4,8.8-0.8c3-0.3,7.4-0.6,13.3-1.2c1.2-0.1,2.2,0.2,3.1,1
					c0.8,0.8,1.3,1.8,1.3,3c0,3,0,7.4,0,13.3c0,1.2-0.4,2.3-1.3,3.2C406.6,134.8,405.5,135.3,404.3,135.4z M391,132.2
					c2-0.2,5-0.4,8.9-0.8c0-0.4,0-0.9,0-1.6c0-1.6,0-4.1,0-7.3c-2,0.2-4.9,0.4-8.9,0.8C391,125.3,391,128.3,391,132.2z M391,149.9
					c2-0.2,5-0.4,8.9-0.8c0-0.4,0-0.9,0-1.6c0-1.6,0-4.1,0-7.3c-2,0.2-4.9,0.4-8.9,0.8C391,143,391,146,391,149.9z"/>
				<path fill="#FFFFFF" d="M444.2,114.2c0,7.9,0,19.7,0,35.5c0,1.2-0.4,2.3-1.3,3.2c-0.9,1-1.9,1.5-3.1,1.6
					c-4,0.3-9.9,0.9-17.7,1.6c-1.2,0.1-2.3-0.2-3.1-1c-0.9-0.8-1.3-1.8-1.3-3c0-3,0-7.4,0-13.3c0-2.4,0-5.5,0-9.1c0-3.7,0-8.1,0-13
					c0-1.2,0.4-2.3,1.3-3.2c0.8-0.9,1.9-1.4,3.1-1.5c3.9-0.3,9.8-0.9,17.7-1.6c1.2-0.1,2.2,0.2,3.1,1
					C443.7,112,444.2,113,444.2,114.2z M426.4,146.8c2-0.2,5-0.4,8.9-0.8c0-0.4,0-1,0-1.7c0-5.5,0-13.8,0-24.9
					c-2,0.2-4.9,0.4-8.9,0.8c0,3,0,7.4,0,13.3C426.4,136.5,426.4,140.9,426.4,146.8z"/>
				<path fill="#FFFFFF" d="M479.6,115.6c-4.4,0.4-7.4,0.6-8.8,0.8c0,17.7,0,29.6,0,35.5c-4.4,0.4-7.4,0.6-8.9,0.8
					c0-17.7,0-29.5,0-35.5c-4.4,0.4-7.4,0.6-8.8,0.8c0-2.2,0-4,0-5.5c0-1.5,0-2.6,0-3.3c13.3-1.2,22.2-1.9,26.6-2.3
					C479.6,110.7,479.6,113.6,479.6,115.6z"/>
				<path fill="#FFFFFF" d="M510.7,126.1c1.2-0.1,2.2,0.2,3.1,1c0.8,0.8,1.3,1.8,1.3,3c0,3.9,0,9.8,0,17.7c-2,0.2-4.9,0.4-8.8,0.8
					c0-3.9,0-9.8,0-17.7c-2,0.2-4.9,0.4-8.9,0.8c0,3.9,0,9.8,0,17.7c-2,0.2-4.9,0.4-8.8,0.8c0-3.9,0-9.8,0-17.7c0-2,0-4.9,0-8.8
					c0-2,0-4.4,0-7.4c0-3,0-6.4,0-10.3c2-0.2,4.9-0.4,8.8-0.8c3-0.3,7.4-0.6,13.3-1.2c1.2-0.1,2.2,0.2,3.1,1c0.8,0.8,1.3,1.8,1.3,3
					c0,3,0,7.4,0,13.3c0,1.2-0.4,2.3-1.3,3.2C512.9,125.5,511.9,126,510.7,126.1z M506.2,122.1c0-0.4,0-0.9,0-1.6c0-1.6,0-4.1,0-7.3
					c-2,0.2-4.9,0.4-8.9,0.8c0,2,0,4.9,0,8.9C499.3,122.7,502.3,122.5,506.2,122.1z"/>
				<path fill="#FFFFFF" d="M550.5,104.9c0,7.9,0,19.7,0,35.5c0,1.2-0.4,2.3-1.3,3.2c-0.9,1-1.9,1.5-3.1,1.6
					c-4,0.3-9.9,0.9-17.7,1.6c-1.2,0.1-2.3-0.2-3.1-1c-0.9-0.8-1.3-1.8-1.3-3c0-3,0-7.4,0-13.3c0-2.4,0-5.5,0-9.1c0-3.7,0-8.1,0-13
					c0-1.2,0.4-2.3,1.3-3.2c0.8-0.9,1.9-1.4,3.1-1.5c3.9-0.3,9.8-0.9,17.7-1.6c1.2-0.1,2.2,0.2,3.1,1
					C550.1,102.7,550.5,103.7,550.5,104.9z M532.8,137.5c2-0.2,5-0.4,8.9-0.8c0-0.4,0-1,0-1.7c0-5.5,0-13.8,0-24.9
					c-2,0.2-4.9,0.4-8.9,0.8c0,3,0,7.4,0,13.3C532.8,127.2,532.8,131.6,532.8,137.5z"/>
				<path fill="#FFFFFF" d="M586,101.8c0,8.9,0,22.2,0,39.9c-2,0.2-4.9,0.4-8.8,0.8c0-7.9,0-19.7,0-35.5c-2,0.2-4.9,0.4-8.9,0.8
					c0,7.9,0,19.7,0,35.5c-2,0.2-4.9,0.4-8.8,0.8c0-4.9,0-11.1,0-18.4c0-7.4,0-16,0-25.8c2-0.2,4.9-0.4,8.8-0.8
					c3-0.3,7.4-0.6,13.3-1.2c1.2-0.1,2.2,0.2,3.1,1C585.5,99.6,586,100.6,586,101.8z"/>
			</g>
		</g>
	</g>
	<g>
		<g>
			<g>
				<circle fill="#FFFFFF" cx="233.1" cy="18" r="2.9"/>
				<radialGradient id="SVGID_2_" cx="233.0623" cy="18" r="8.5107" gradientUnits="userSpaceOnUse">
					<stop  offset="0" style="stop-color:#FFFFFF"/>
					<stop  offset="1" style="stop-color:#FFFFFF;stop-opacity:0"/>
				</radialGradient>
				<circle fill="url(#SVGID_2_)" cx="233.1" cy="18" r="9.3"/>
			</g>
			<g>
				<circle fill="#FFFFFF" cx="245.3" cy="18" r="2.9"/>
				<radialGradient id="SVGID_3_" cx="245.2983" cy="18" r="8.5107" gradientUnits="userSpaceOnUse">
					<stop  offset="0" style="stop-color:#FFFFFF"/>
					<stop  offset="1" style="stop-color:#FFFFFF;stop-opacity:0"/>
				</radialGradient>
				<circle fill="url(#SVGID_3_)" cx="245.3" cy="18" r="9.3"/>
			</g>
			<g>
				<circle fill="#FFFFFF" cx="257.5" cy="18" r="2.9"/>
				<radialGradient id="SVGID_4_" cx="257.5343" cy="18" r="8.5107" gradientUnits="userSpaceOnUse">
					<stop  offset="0" style="stop-color:#FFFFFF"/>
					<stop  offset="1" style="stop-color:#FFFFFF;stop-opacity:0"/>
				</radialGradient>
				<circle fill="url(#SVGID_4_)" cx="257.5" cy="18" r="9.3"/>
			</g>
			<g>
				<circle fill="#FFFFFF" cx="269.8" cy="18" r="2.9"/>
				<radialGradient id="SVGID_5_" cx="269.7703" cy="18" r="8.5107" gradientUnits="userSpaceOnUse">
					<stop  offset="0" style="stop-color:#FFFFFF"/>
					<stop  offset="1" style="stop-color:#FFFFFF;stop-opacity:0"/>
				</radialGradient>
				<circle fill="url(#SVGID_5_)" cx="269.8" cy="18" r="9.3"/>
			</g>
			<g>
				<circle fill="#FFFFFF" cx="282" cy="18" r="2.9"/>
				<radialGradient id="SVGID_6_" cx="282.0062" cy="18" r="8.5107" gradientUnits="userSpaceOnUse">
					<stop  offset="0" style="stop-color:#FFFFFF"/>
					<stop  offset="1" style="stop-color:#FFFFFF;stop-opacity:0"/>
				</radialGradient>
				<circle fill="url(#SVGID_6_)" cx="282" cy="18" r="9.3"/>
			</g>
		</g>
		<g>
			<g>
				<circle fill="#FFFFFF" cx="314.8" cy="18" r="2.9"/>
				<radialGradient id="SVGID_7_" cx="314.7677" cy="18" r="8.5107" gradientUnits="userSpaceOnUse">
					<stop  offset="0" style="stop-color:#FFFFFF"/>
					<stop  offset="1" style="stop-color:#FFFFFF;stop-opacity:0"/>
				</radialGradient>
				<circle fill="url(#SVGID_7_)" cx="314.8" cy="18" r="9.3"/>
			</g>
			<g>
				<circle fill="#FFFFFF" cx="327" cy="18" r="2.9"/>
				<radialGradient id="SVGID_8_" cx="327.0037" cy="18" r="8.5107" gradientUnits="userSpaceOnUse">
					<stop  offset="0" style="stop-color:#FFFFFF"/>
					<stop  offset="1" style="stop-color:#FFFFFF;stop-opacity:0"/>
				</radialGradient>
				<circle fill="url(#SVGID_8_)" cx="327" cy="18" r="9.3"/>
			</g>
			<g>
				<circle fill="#FFFFFF" cx="339.2" cy="18" r="2.9"/>
				<radialGradient id="SVGID_9_" cx="339.2397" cy="18" r="8.5107" gradientUnits="userSpaceOnUse">
					<stop  offset="0" style="stop-color:#FFFFFF"/>
					<stop  offset="1" style="stop-color:#FFFFFF;stop-opacity:0"/>
				</radialGradient>
				<circle fill="url(#SVGID_9_)" cx="339.2" cy="18" r="9.3"/>
			</g>
			<g>
				<circle fill="#FFFFFF" cx="351.5" cy="18" r="2.9"/>
				<radialGradient id="SVGID_10_" cx="351.4756" cy="18" r="8.5107" gradientUnits="userSpaceOnUse">
					<stop  offset="0" style="stop-color:#FFFFFF"/>
					<stop  offset="1" style="stop-color:#FFFFFF;stop-opacity:0"/>
				</radialGradient>
				<circle fill="url(#SVGID_10_)" cx="351.5" cy="18" r="9.3"/>
			</g>
			<g>
				<circle fill="#FFFFFF" cx="363.7" cy="18" r="2.9"/>
				<radialGradient id="SVGID_11_" cx="363.7116" cy="18" r="8.5107" gradientUnits="userSpaceOnUse">
					<stop  offset="0" style="stop-color:#FFFFFF"/>
					<stop  offset="1" style="stop-color:#FFFFFF;stop-opacity:0"/>
				</radialGradient>
				<circle fill="url(#SVGID_11_)" cx="363.7" cy="18" r="9.3"/>
			</g>
		</g>
		<g>
			<g>
				<circle fill="#FFFFFF" cx="396.5" cy="18" r="2.9"/>
				<radialGradient id="SVGID_12_" cx="396.4731" cy="18" r="8.5107" gradientUnits="userSpaceOnUse">
					<stop  offset="0" style="stop-color:#FFFFFF"/>
					<stop  offset="1" style="stop-color:#FFFFFF;stop-opacity:0"/>
				</radialGradient>
				<circle fill="url(#SVGID_12_)" cx="396.5" cy="18" r="9.3"/>
			</g>
			<g>
				<circle fill="#FFFFFF" cx="408.7" cy="18" r="2.9"/>
				<radialGradient id="SVGID_13_" cx="408.709" cy="18" r="8.5107" gradientUnits="userSpaceOnUse">
					<stop  offset="0" style="stop-color:#FFFFFF"/>
					<stop  offset="1" style="stop-color:#FFFFFF;stop-opacity:0"/>
				</radialGradient>
				<circle fill="url(#SVGID_13_)" cx="408.7" cy="18" r="9.3"/>
			</g>
			<g>
				<circle fill="#FFFFFF" cx="420.9" cy="18" r="2.9"/>
				<radialGradient id="SVGID_14_" cx="420.945" cy="18" r="8.5107" gradientUnits="userSpaceOnUse">
					<stop  offset="0" style="stop-color:#FFFFFF"/>
					<stop  offset="1" style="stop-color:#FFFFFF;stop-opacity:0"/>
				</radialGradient>
				<circle fill="url(#SVGID_14_)" cx="420.9" cy="18" r="9.3"/>
			</g>
			<g>
				<circle fill="#FFFFFF" cx="433.2" cy="18" r="2.9"/>
				<radialGradient id="SVGID_15_" cx="433.181" cy="18" r="8.5107" gradientUnits="userSpaceOnUse">
					<stop  offset="0" style="stop-color:#FFFFFF"/>
					<stop  offset="1" style="stop-color:#FFFFFF;stop-opacity:0"/>
				</radialGradient>
				<circle fill="url(#SVGID_15_)" cx="433.2" cy="18" r="9.3"/>
			</g>
			<g>
				<circle fill="#FFFFFF" cx="445.4" cy="18" r="2.9"/>
				<radialGradient id="SVGID_16_" cx="445.417" cy="18" r="8.5107" gradientUnits="userSpaceOnUse">
					<stop  offset="0" style="stop-color:#FFFFFF"/>
					<stop  offset="1" style="stop-color:#FFFFFF;stop-opacity:0"/>
				</radialGradient>
				<circle fill="url(#SVGID_16_)" cx="445.4" cy="18" r="9.3"/>
			</g>
		</g>
		<g>
			<g>
				<circle fill="#FFFFFF" cx="478.2" cy="18" r="2.9"/>
				<radialGradient id="SVGID_17_" cx="478.1784" cy="18" r="8.5107" gradientUnits="userSpaceOnUse">
					<stop  offset="0" style="stop-color:#FFFFFF"/>
					<stop  offset="1" style="stop-color:#FFFFFF;stop-opacity:0"/>
				</radialGradient>
				<circle fill="url(#SVGID_17_)" cx="478.2" cy="18" r="9.3"/>
			</g>
			<g>
				<circle fill="#FFFFFF" cx="490.4" cy="18" r="2.9"/>
				<radialGradient id="SVGID_18_" cx="490.4144" cy="18" r="8.5107" gradientUnits="userSpaceOnUse">
					<stop  offset="0" style="stop-color:#FFFFFF"/>
					<stop  offset="1" style="stop-color:#FFFFFF;stop-opacity:0"/>
				</radialGradient>
				<circle fill="url(#SVGID_18_)" cx="490.4" cy="18" r="9.3"/>
			</g>
			<g>
				<circle fill="#FFFFFF" cx="502.7" cy="18" r="2.9"/>
				<radialGradient id="SVGID_19_" cx="502.6504" cy="18" r="8.5107" gradientUnits="userSpaceOnUse">
					<stop  offset="0" style="stop-color:#FFFFFF"/>
					<stop  offset="1" style="stop-color:#FFFFFF;stop-opacity:0"/>
				</radialGradient>
				<circle fill="url(#SVGID_19_)" cx="502.7" cy="18" r="9.3"/>
			</g>
			<g>
				<circle fill="#FFFFFF" cx="514.9" cy="18" r="2.9"/>
				<radialGradient id="SVGID_20_" cx="514.8864" cy="18" r="8.5107" gradientUnits="userSpaceOnUse">
					<stop  offset="0" style="stop-color:#FFFFFF"/>
					<stop  offset="1" style="stop-color:#FFFFFF;stop-opacity:0"/>
				</radialGradient>
				<circle fill="url(#SVGID_20_)" cx="514.9" cy="18" r="9.3"/>
			</g>
			<g>
				<circle fill="#FFFFFF" cx="527.1" cy="18" r="2.9"/>
				<radialGradient id="SVGID_21_" cx="527.1223" cy="18" r="8.5107" gradientUnits="userSpaceOnUse">
					<stop  offset="0" style="stop-color:#FFFFFF"/>
					<stop  offset="1" style="stop-color:#FFFFFF;stop-opacity:0"/>
				</radialGradient>
				<circle fill="url(#SVGID_21_)" cx="527.1" cy="18" r="9.3"/>
			</g>
		</g>
		<g>
			<g>
				<circle fill="#FFFFFF" cx="559.9" cy="18" r="2.9"/>
				<radialGradient id="SVGID_22_" cx="559.8838" cy="18" r="8.5107" gradientUnits="userSpaceOnUse">
					<stop  offset="0" style="stop-color:#FFFFFF"/>
					<stop  offset="1" style="stop-color:#FFFFFF;stop-opacity:0"/>
				</radialGradient>
				<circle fill="url(#SVGID_22_)" cx="559.9" cy="18" r="9.3"/>
			</g>
			<g>
				<circle fill="#FFFFFF" cx="572.1" cy="18" r="2.9"/>
				<radialGradient id="SVGID_23_" cx="572.1198" cy="18" r="8.5107" gradientUnits="userSpaceOnUse">
					<stop  offset="0" style="stop-color:#FFFFFF"/>
					<stop  offset="1" style="stop-color:#FFFFFF;stop-opacity:0"/>
				</radialGradient>
				<circle fill="url(#SVGID_23_)" cx="572.1" cy="18" r="9.3"/>
			</g>
			<g>
				<circle fill="#FFFFFF" cx="584.4" cy="18" r="2.9"/>
				<radialGradient id="SVGID_24_" cx="584.3557" cy="18" r="8.5107" gradientUnits="userSpaceOnUse">
					<stop  offset="0" style="stop-color:#FFFFFF"/>
					<stop  offset="1" style="stop-color:#FFFFFF;stop-opacity:0"/>
				</radialGradient>
				<circle fill="url(#SVGID_24_)" cx="584.4" cy="18" r="9.3"/>
			</g>
			<g>
				<circle fill="#FFFFFF" cx="596.6" cy="18" r="2.9"/>
				<radialGradient id="SVGID_25_" cx="596.5917" cy="18" r="8.5107" gradientUnits="userSpaceOnUse">
					<stop  offset="0" style="stop-color:#FFFFFF"/>
					<stop  offset="1" style="stop-color:#FFFFFF;stop-opacity:0"/>
				</radialGradient>
				<circle fill="url(#SVGID_25_)" cx="596.6" cy="18" r="9.3"/>
			</g>
			<g>
				<circle fill="#FFFFFF" cx="608.8" cy="18" r="2.9"/>
				<radialGradient id="SVGID_26_" cx="608.8276" cy="18" r="8.5107" gradientUnits="userSpaceOnUse">
					<stop  offset="0" style="stop-color:#FFFFFF"/>
					<stop  offset="1" style="stop-color:#FFFFFF;stop-opacity:0"/>
				</radialGradient>
				<circle fill="url(#SVGID_26_)" cx="608.8" cy="18" r="9.3"/>
			</g>
		</g>
	</g>
	<g>
		<g>
			<g>
				<g>
					<circle fill="#FFFFFF" cx="661.9" cy="48.5" r="2.9"/>
					<radialGradient id="SVGID_27_" cx="661.941" cy="48.4865" r="8.5107" gradientUnits="userSpaceOnUse">
						<stop  offset="0" style="stop-color:#FFFFFF"/>
						<stop  offset="1" style="stop-color:#FFFFFF;stop-opacity:0"/>
					</radialGradient>
					<circle fill="url(#SVGID_27_)" cx="661.9" cy="48.5" r="9.3"/>
				</g>
				<g>
					<circle fill="#FFFFFF" cx="674.2" cy="48.5" r="2.9"/>
					<radialGradient id="SVGID_28_" cx="674.1769" cy="48.4865" r="8.5107" gradientUnits="userSpaceOnUse">
						<stop  offset="0" style="stop-color:#FFFFFF"/>
						<stop  offset="1" style="stop-color:#FFFFFF;stop-opacity:0"/>
					</radialGradient>
					<circle fill="url(#SVGID_28_)" cx="674.2" cy="48.5" r="9.3"/>
				</g>
				<g>
					<circle fill="#FFFFFF" cx="686.4" cy="48.5" r="2.9"/>
					<radialGradient id="SVGID_29_" cx="686.4129" cy="48.4865" r="8.5107" gradientUnits="userSpaceOnUse">
						<stop  offset="0" style="stop-color:#FFFFFF"/>
						<stop  offset="1" style="stop-color:#FFFFFF;stop-opacity:0"/>
					</radialGradient>
					<circle fill="url(#SVGID_29_)" cx="686.4" cy="48.5" r="9.3"/>
				</g>
				<g>
					<circle fill="#FFFFFF" cx="698.6" cy="48.5" r="2.9"/>
					<radialGradient id="SVGID_30_" cx="698.6489" cy="48.4865" r="8.5107" gradientUnits="userSpaceOnUse">
						<stop  offset="0" style="stop-color:#FFFFFF"/>
						<stop  offset="1" style="stop-color:#FFFFFF;stop-opacity:0"/>
					</radialGradient>
					<circle fill="url(#SVGID_30_)" cx="698.6" cy="48.5" r="9.3"/>
				</g>
				<g>
					<circle fill="#FFFFFF" cx="710.9" cy="48.5" r="2.9"/>
					<radialGradient id="SVGID_31_" cx="710.8848" cy="48.4865" r="8.5107" gradientUnits="userSpaceOnUse">
						<stop  offset="0" style="stop-color:#FFFFFF"/>
						<stop  offset="1" style="stop-color:#FFFFFF;stop-opacity:0"/>
					</radialGradient>
					<circle fill="url(#SVGID_31_)" cx="710.9" cy="48.5" r="9.3"/>
				</g>
			</g>
			<g>
				<g>
					<circle fill="#FFFFFF" cx="761.5" cy="67.2" r="2.9"/>
					<radialGradient id="SVGID_32_" cx="761.5001" cy="67.1684" r="8.5107" gradientUnits="userSpaceOnUse">
						<stop  offset="0" style="stop-color:#FFFFFF"/>
						<stop  offset="1" style="stop-color:#FFFFFF;stop-opacity:0"/>
					</radialGradient>
					<circle fill="url(#SVGID_32_)" cx="761.5" cy="67.2" r="9.3"/>
				</g>
				<g>
					<circle fill="#FFFFFF" cx="773.7" cy="67.2" r="2.9"/>
					<radialGradient id="SVGID_33_" cx="773.736" cy="67.1684" r="8.5107" gradientUnits="userSpaceOnUse">
						<stop  offset="0" style="stop-color:#FFFFFF"/>
						<stop  offset="1" style="stop-color:#FFFFFF;stop-opacity:0"/>
					</radialGradient>
					<circle fill="url(#SVGID_33_)" cx="773.7" cy="67.2" r="9.3"/>
				</g>
				<g>
					<circle fill="#FFFFFF" cx="786" cy="67.2" r="2.9"/>
					<radialGradient id="SVGID_34_" cx="785.972" cy="67.1684" r="8.5107" gradientUnits="userSpaceOnUse">
						<stop  offset="0" style="stop-color:#FFFFFF"/>
						<stop  offset="1" style="stop-color:#FFFFFF;stop-opacity:0"/>
					</radialGradient>
					<circle fill="url(#SVGID_34_)" cx="786" cy="67.2" r="9.3"/>
				</g>
				<g>
					<circle fill="#FFFFFF" cx="798.2" cy="67.2" r="2.9"/>
					<radialGradient id="SVGID_35_" cx="798.208" cy="67.1684" r="8.5107" gradientUnits="userSpaceOnUse">
						<stop  offset="0" style="stop-color:#FFFFFF"/>
						<stop  offset="1" style="stop-color:#FFFFFF;stop-opacity:0"/>
					</radialGradient>
					<circle fill="url(#SVGID_35_)" cx="798.2" cy="67.2" r="9.3"/>
				</g>
				<g>
					<circle fill="#FFFFFF" cx="810.4" cy="67.2" r="2.9"/>
					<radialGradient id="SVGID_36_" cx="810.444" cy="67.1684" r="8.5107" gradientUnits="userSpaceOnUse">
						<stop  offset="0" style="stop-color:#FFFFFF"/>
						<stop  offset="1" style="stop-color:#FFFFFF;stop-opacity:0"/>
					</radialGradient>
					<circle fill="url(#SVGID_36_)" cx="810.4" cy="67.2" r="9.3"/>
				</g>
			</g>
		</g>
		<g>
			<g>
				<g>
					<circle fill="#FFFFFF" cx="179.9" cy="48.5" r="2.9"/>
					
						<radialGradient id="SVGID_37_" cx="1287.4398" cy="48.4865" r="8.5107" gradientTransform="matrix(-1 0 0 1 1467.3888 0)" gradientUnits="userSpaceOnUse">
						<stop  offset="0" style="stop-color:#FFFFFF"/>
						<stop  offset="1" style="stop-color:#FFFFFF;stop-opacity:0"/>
					</radialGradient>
					<circle fill="url(#SVGID_37_)" cx="179.9" cy="48.5" r="9.3"/>
				</g>
				<g>
					<circle fill="#FFFFFF" cx="167.7" cy="48.5" r="2.9"/>
					
						<radialGradient id="SVGID_38_" cx="1299.6758" cy="48.4865" r="8.5107" gradientTransform="matrix(-1 0 0 1 1467.3888 0)" gradientUnits="userSpaceOnUse">
						<stop  offset="0" style="stop-color:#FFFFFF"/>
						<stop  offset="1" style="stop-color:#FFFFFF;stop-opacity:0"/>
					</radialGradient>
					<circle fill="url(#SVGID_38_)" cx="167.7" cy="48.5" r="9.3"/>
				</g>
				<g>
					<circle fill="#FFFFFF" cx="155.5" cy="48.5" r="2.9"/>
					
						<radialGradient id="SVGID_39_" cx="1311.9117" cy="48.4865" r="8.5107" gradientTransform="matrix(-1 0 0 1 1467.3888 0)" gradientUnits="userSpaceOnUse">
						<stop  offset="0" style="stop-color:#FFFFFF"/>
						<stop  offset="1" style="stop-color:#FFFFFF;stop-opacity:0"/>
					</radialGradient>
					<circle fill="url(#SVGID_39_)" cx="155.5" cy="48.5" r="9.3"/>
				</g>
				<g>
					<circle fill="#FFFFFF" cx="143.2" cy="48.5" r="2.9"/>
					
						<radialGradient id="SVGID_40_" cx="1324.1477" cy="48.4865" r="8.5107" gradientTransform="matrix(-1 0 0 1 1467.3888 0)" gradientUnits="userSpaceOnUse">
						<stop  offset="0" style="stop-color:#FFFFFF"/>
						<stop  offset="1" style="stop-color:#FFFFFF;stop-opacity:0"/>
					</radialGradient>
					<circle fill="url(#SVGID_40_)" cx="143.2" cy="48.5" r="9.3"/>
				</g>
				<g>
					<circle fill="#FFFFFF" cx="131" cy="48.5" r="2.9"/>
					
						<radialGradient id="SVGID_41_" cx="1336.3837" cy="48.4865" r="8.5107" gradientTransform="matrix(-1 0 0 1 1467.3888 0)" gradientUnits="userSpaceOnUse">
						<stop  offset="0" style="stop-color:#FFFFFF"/>
						<stop  offset="1" style="stop-color:#FFFFFF;stop-opacity:0"/>
					</radialGradient>
					<circle fill="url(#SVGID_41_)" cx="131" cy="48.5" r="9.3"/>
				</g>
			</g>
			<g>
				<g>
					<circle fill="#FFFFFF" cx="80.4" cy="67.2" r="2.9"/>
					
						<radialGradient id="SVGID_42_" cx="1386.9989" cy="67.1684" r="8.5107" gradientTransform="matrix(-1 0 0 1 1467.3888 0)" gradientUnits="userSpaceOnUse">
						<stop  offset="0" style="stop-color:#FFFFFF"/>
						<stop  offset="1" style="stop-color:#FFFFFF;stop-opacity:0"/>
					</radialGradient>
					<circle fill="url(#SVGID_42_)" cx="80.4" cy="67.2" r="9.3"/>
				</g>
				<g>
					<circle fill="#FFFFFF" cx="68.2" cy="67.2" r="2.9"/>
					
						<radialGradient id="SVGID_43_" cx="1399.2349" cy="67.1684" r="8.5107" gradientTransform="matrix(-1 0 0 1 1467.3888 0)" gradientUnits="userSpaceOnUse">
						<stop  offset="0" style="stop-color:#FFFFFF"/>
						<stop  offset="1" style="stop-color:#FFFFFF;stop-opacity:0"/>
					</radialGradient>
					<circle fill="url(#SVGID_43_)" cx="68.2" cy="67.2" r="9.3"/>
				</g>
				<g>
					<circle fill="#FFFFFF" cx="55.9" cy="67.2" r="2.9"/>
					
						<radialGradient id="SVGID_44_" cx="1411.4708" cy="67.1684" r="8.5107" gradientTransform="matrix(-1 0 0 1 1467.3888 0)" gradientUnits="userSpaceOnUse">
						<stop  offset="0" style="stop-color:#FFFFFF"/>
						<stop  offset="1" style="stop-color:#FFFFFF;stop-opacity:0"/>
					</radialGradient>
					<circle fill="url(#SVGID_44_)" cx="55.9" cy="67.2" r="9.3"/>
				</g>
				<g>
					<circle fill="#FFFFFF" cx="43.7" cy="67.2" r="2.9"/>
					
						<radialGradient id="SVGID_45_" cx="1423.7068" cy="67.1684" r="8.5107" gradientTransform="matrix(-1 0 0 1 1467.3888 0)" gradientUnits="userSpaceOnUse">
						<stop  offset="0" style="stop-color:#FFFFFF"/>
						<stop  offset="1" style="stop-color:#FFFFFF;stop-opacity:0"/>
					</radialGradient>
					<circle fill="url(#SVGID_45_)" cx="43.7" cy="67.2" r="9.3"/>
				</g>
				<g>
					<circle fill="#FFFFFF" cx="31.4" cy="67.2" r="2.9"/>
					
						<radialGradient id="SVGID_46_" cx="1435.9427" cy="67.1684" r="8.5107" gradientTransform="matrix(-1 0 0 1 1467.3888 0)" gradientUnits="userSpaceOnUse">
						<stop  offset="0" style="stop-color:#FFFFFF"/>
						<stop  offset="1" style="stop-color:#FFFFFF;stop-opacity:0"/>
					</radialGradient>
					<circle fill="url(#SVGID_46_)" cx="31.4" cy="67.2" r="9.3"/>
				</g>
			</g>
		</g>
	</g>
	<g>
		<g>
			<g>
				<path fill="#FFFFFF" d="M19.4,400.5c3.3,0,3.3-5,0-5S16.1,400.5,19.4,400.5L19.4,400.5z"/>
			</g>
			<g>
				<path fill="#FFFFFF" d="M43.9,381.5c3.3,0,3.3-5,0-5C40.6,376.5,40.6,381.5,43.9,381.5L43.9,381.5z"/>
			</g>
			<g>
				<path fill="#FFFFFF" d="M86.6,346.5c3.3,0,3.3-5,0-5C83.3,341.5,83.3,346.5,86.6,346.5L86.6,346.5z"/>
			</g>
			<g>
				<path fill="#FFFFFF" d="M48.9,367.5c3.3,0,3.3-5,0-5C45.7,362.5,45.7,367.5,48.9,367.5L48.9,367.5z"/>
			</g>
			<g>
				<path fill="#FFFFFF" d="M29.6,359.5c3.3,0,3.3-5,0-5S26.3,359.5,29.6,359.5L29.6,359.5z"/>
			</g>
			<g>
				<path fill="#FFFFFF" d="M24.5,380.5c3.3,0,3.3-5,0-5S21.2,380.5,24.5,380.5L24.5,380.5z"/>
			</g>
			<g>
				<path fill="#FFFFFF" d="M16.4,360.5c3.3,0,3.3-5,0-5S13.1,360.5,16.4,360.5L16.4,360.5z"/>
			</g>
			<g>
				<path fill="#FFFFFF" d="M31.6,342.5c3.3,0,3.3-5,0-5S28.3,342.5,31.6,342.5L31.6,342.5z"/>
			</g>
			<g>
				<path fill="#FFFFFF" d="M50,355.5c3.3,0,3.3-5,0-5C46.7,350.5,46.7,355.5,50,355.5L50,355.5z"/>
			</g>
			<g>
				<path fill="#FFFFFF" d="M63.2,330.5c3.3,0,3.3-5,0-5C59.9,325.5,59.9,330.5,63.2,330.5L63.2,330.5z"/>
			</g>
			<g>
				<path fill="#FFFFFF" d="M69.3,362.5c3.3,0,3.3-5,0-5S66,362.5,69.3,362.5L69.3,362.5z"/>
			</g>
			<g>
				<path fill="#FFFFFF" d="M66.3,347.5c3.3,0,3.3-5,0-5C63,342.5,63,347.5,66.3,347.5L66.3,347.5z"/>
			</g>
			<g>
				<path fill="#FFFFFF" d="M51,340.5c3.3,0,3.3-5,0-5C47.7,335.5,47.7,340.5,51,340.5L51,340.5z"/>
			</g>
			<g>
				<path fill="#FFFFFF" d="M88.7,323.5c3.3,0,3.3-5,0-5C85.4,318.5,85.4,323.5,88.7,323.5L88.7,323.5z"/>
			</g>
			<g>
				<path fill="#FFFFFF" d="M76.4,312.5c3.3,0,3.3-5,0-5C73.2,307.5,73.2,312.5,76.4,312.5L76.4,312.5z"/>
			</g>
			<g>
				<path fill="#FFFFFF" d="M77.5,333.5c3.3,0,3.3-5,0-5C74.2,328.5,74.2,333.5,77.5,333.5L77.5,333.5z"/>
			</g>
			<g>
				<path fill="#FFFFFF" d="M100.9,334.5c3.3,0,3.3-5,0-5S97.6,334.5,100.9,334.5L100.9,334.5z"/>
			</g>
			<g>
				<path fill="#FFFFFF" d="M105,317.5c3.3,0,3.3-5,0-5S101.7,317.5,105,317.5L105,317.5z"/>
			</g>
			<g>
				<path fill="#FFFFFF" d="M94.8,311.5c3.3,0,3.3-5,0-5S91.5,311.5,94.8,311.5L94.8,311.5z"/>
			</g>
			<g>
				<path fill="#FFFFFF" d="M126.3,310.5c3.3,0,3.3-5,0-5S123.1,310.5,126.3,310.5L126.3,310.5z"/>
			</g>
			<g>
				<path fill="#FFFFFF" d="M126.3,304.5c3.3,0,3.3-5,0-5S123.1,304.5,126.3,304.5L126.3,304.5z"/>
			</g>
			<g>
				<path fill="#FFFFFF" d="M121.3,323.5c3.3,0,3.3-5,0-5S118,323.5,121.3,323.5L121.3,323.5z"/>
			</g>
			<g>
				<path fill="#FFFFFF" d="M113.1,309.5c3.3,0,3.3-5,0-5C109.8,304.5,109.8,309.5,113.1,309.5L113.1,309.5z"/>
			</g>
			<g>
				<path fill="#FFFFFF" d="M143.7,310.5c3.3,0,3.3-5,0-5C140.4,305.5,140.4,310.5,143.7,310.5L143.7,310.5z"/>
			</g>
			<g>
				<path fill="#FFFFFF" d="M151.8,295.5c3.3,0,3.3-5,0-5C148.5,290.5,148.5,295.5,151.8,295.5L151.8,295.5z"/>
			</g>
			<g>
				<path fill="#FFFFFF" d="M164,315.5c3.3,0,3.3-5,0-5C160.7,310.5,160.7,315.5,164,315.5L164,315.5z"/>
			</g>
			<g>
				<path fill="#FFFFFF" d="M138.6,320.5c3.3,0,3.3-5,0-5C135.3,315.5,135.3,320.5,138.6,320.5L138.6,320.5z"/>
			</g>
			<g>
				<path fill="#FFFFFF" d="M162,303.5c3.3,0,3.3-5,0-5C158.7,298.5,158.7,303.5,162,303.5L162,303.5z"/>
			</g>
			<g>
				<path fill="#FFFFFF" d="M187.4,291.5c3.3,0,3.3-5,0-5C184.2,286.5,184.2,291.5,187.4,291.5L187.4,291.5z"/>
			</g>
			<g>
				<path fill="#FFFFFF" d="M179.3,308.5c3.3,0,3.3-5,0-5C176,303.5,176,308.5,179.3,308.5L179.3,308.5z"/>
			</g>
			<g>
				<path fill="#FFFFFF" d="M192.5,317.5c3.3,0,3.3-5,0-5C189.3,312.5,189.3,317.5,192.5,317.5L192.5,317.5z"/>
			</g>
			<g>
				<path fill="#FFFFFF" d="M201.7,299.5c3.3,0,3.3-5,0-5S198.4,299.5,201.7,299.5L201.7,299.5z"/>
			</g>
			<g>
				<path fill="#FFFFFF" d="M188.5,303.5c3.3,0,3.3-5,0-5S185.2,303.5,188.5,303.5L188.5,303.5z"/>
			</g>
			<g>
				<path fill="#FFFFFF" d="M209.9,309.5c3.3,0,3.3-5,0-5C206.6,304.5,206.6,309.5,209.9,309.5L209.9,309.5z"/>
			</g>
			<g>
				<path fill="#FFFFFF" d="M200.7,292.5c3.3,0,3.3-5,0-5C197.4,287.5,197.4,292.5,200.7,292.5L200.7,292.5z"/>
			</g>
			<g>
				<path fill="#FFFFFF" d="M212.9,292.5c3.3,0,3.3-5,0-5C209.6,287.5,209.6,292.5,212.9,292.5L212.9,292.5z"/>
			</g>
			<g>
				<path fill="#FFFFFF" d="M221.1,305.5c3.3,0,3.3-5,0-5C217.8,300.5,217.8,305.5,221.1,305.5L221.1,305.5z"/>
			</g>
			<g>
				<path fill="#FFFFFF" d="M232.3,292.5c0.3,0,0.7,0,1,0c1.4,0,2.5-1.1,2.5-2.5s-1.2-2.5-2.5-2.5c-0.3,0-0.7,0-1,0
					c-1.4,0-2.5,1.1-2.5,2.5S230.9,292.5,232.3,292.5L232.3,292.5z"/>
			</g>
			<g>
				<path fill="#FFFFFF" d="M234.3,311.5c3.3,0,3.3-5,0-5S231,311.5,234.3,311.5L234.3,311.5z"/>
			</g>
			<g>
				<path fill="#FFFFFF" d="M238.4,302.5c3.3,0,3.3-5,0-5C235.1,297.5,235.1,302.5,238.4,302.5L238.4,302.5z"/>
			</g>
			<g>
				<path fill="#FFFFFF" d="M249.6,307.5c3.3,0,3.3-5,0-5S246.3,307.5,249.6,307.5L249.6,307.5z"/>
			</g>
			<g>
				<path fill="#FFFFFF" d="M257.9,290.3c-0.5,0.7,0.4-0.2-0.3,0.3c0.1-0.1,0.2-0.1,0.3-0.2c-0.4,0.1-0.4,0.1-0.1,0.1
					c0.1,0,0.2-0.1,0.3-0.1c-0.4,0-0.5,0.1-0.2,0c0.3,0,0.2,0-0.2,0c0.1,0,0.2,0.1,0.3,0.1c1.3,0.4,2.8-0.5,3.1-1.7
					c0.4-1.4-0.5-2.7-1.8-3.1c-1-0.3-2-0.3-3,0c-1.2,0.3-2.1,1.1-2.9,2.1c-0.8,1.1-0.2,2.8,0.9,3.4
					C255.7,291.9,257,291.3,257.9,290.3L257.9,290.3z"/>
			</g>
			<g>
				<path fill="#FFFFFF" d="M292.3,288.5c3.3,0,3.3-5,0-5C289.1,283.5,289.1,288.5,292.3,288.5L292.3,288.5z"/>
			</g>
			<g>
				<path fill="#FFFFFF" d="M266.9,302.5c3.3,0,3.3-5,0-5C263.6,297.5,263.6,302.5,266.9,302.5L266.9,302.5z"/>
			</g>
			<g>
				<path fill="#FFFFFF" d="M268.9,312.5c3.3,0,3.3-5,0-5S265.6,312.5,268.9,312.5L268.9,312.5z"/>
			</g>
			<g>
				<path fill="#FFFFFF" d="M284.2,310.5c3.3,0,3.3-5,0-5S280.9,310.5,284.2,310.5L284.2,310.5z"/>
			</g>
			<g>
				<path fill="#FFFFFF" d="M277.1,293.5c3.3,0,3.3-5,0-5C273.8,288.5,273.8,293.5,277.1,293.5L277.1,293.5z"/>
			</g>
			<g>
				<path fill="#FFFFFF" d="M296.4,304.5c3.3,0,3.3-5,0-5S293.1,304.5,296.4,304.5L296.4,304.5z"/>
			</g>
			<g>
				<path fill="#FFFFFF" d="M297.4,298.5c3.3,0,3.3-5,0-5C294.2,293.5,294.2,298.5,297.4,298.5L297.4,298.5z"/>
			</g>
			<g>
				<path fill="#FFFFFF" d="M312.7,294.5c3.3,0,3.3-5,0-5C309.4,289.5,309.4,294.5,312.7,294.5L312.7,294.5z"/>
			</g>
			<g>
				<path fill="#FFFFFF" d="M301.5,292.5c3.3,0,3.3-5,0-5S298.2,292.5,301.5,292.5L301.5,292.5z"/>
			</g>
			<g>
				<path fill="#FFFFFF" d="M325.9,287.5c3.3,0,3.3-5,0-5S322.7,287.5,325.9,287.5L325.9,287.5z"/>
			</g>
			<g>
				<path fill="#FFFFFF" d="M312.7,310.5c3.3,0,3.3-5,0-5C309.4,305.5,309.4,310.5,312.7,310.5L312.7,310.5z"/>
			</g>
			<g>
				<path fill="#FFFFFF" d="M310.7,304.5c3.3,0,3.3-5,0-5S307.4,304.5,310.7,304.5L310.7,304.5z"/>
			</g>
			<g>
				<path fill="#FFFFFF" d="M339.2,312.5c3.3,0,3.3-5,0-5C335.9,307.5,335.9,312.5,339.2,312.5L339.2,312.5z"/>
			</g>
			<g>
				<path fill="#FFFFFF" d="M328,297.5c3.3,0,3.3-5,0-5C324.7,292.5,324.7,297.5,328,297.5L328,297.5z"/>
			</g>
			<g>
				<path fill="#FFFFFF" d="M325.9,306.5c3.3,0,3.3-5,0-5S322.7,306.5,325.9,306.5L325.9,306.5z"/>
			</g>
			<g>
				<path fill="#FFFFFF" d="M340.2,294.5c3.3,0,3.3-5,0-5S336.9,294.5,340.2,294.5L340.2,294.5z"/>
			</g>
			<g>
				<path fill="#FFFFFF" d="M350.4,295.5c3.3,0,3.3-5,0-5S347.1,295.5,350.4,295.5L350.4,295.5z"/>
			</g>
			<g>
				<path fill="#FFFFFF" d="M14.8,420c0-0.3,0-0.7,0-1c0-1.4-1.2-2.5-2.5-2.5s-2.5,1.1-2.5,2.5c0,0.3,0,0.7,0,1
					c0,1.4,1.2,2.5,2.5,2.5S14.8,421.4,14.8,420L14.8,420z"/>
			</g>
			<g>
				<path fill="#FFFFFF" d="M24.5,408.5c3.3,0,3.3-5,0-5S21.2,408.5,24.5,408.5L24.5,408.5z"/>
			</g>
			<g>
				<path fill="#FFFFFF" d="M34.7,395.5c3.3,0,3.3-5,0-5S31.4,395.5,34.7,395.5L34.7,395.5z"/>
			</g>
			<g>
				<path fill="#FFFFFF" d="M52,386.5c3.3,0,3.3-5,0-5S48.7,386.5,52,386.5L52,386.5z"/>
			</g>
			<g>
				<path fill="#FFFFFF" d="M63.2,374.5c3.3,0,3.3-5,0-5C59.9,369.5,59.9,374.5,63.2,374.5L63.2,374.5z"/>
			</g>
			<g>
				<path fill="#FFFFFF" d="M33.7,368.5c3.3,0,3.3-5,0-5C30.4,363.5,30.4,368.5,33.7,368.5L33.7,368.5z"/>
			</g>
			<g>
				<path fill="#FFFFFF" d="M13.3,392.5c3.3,0,3.3-5,0-5S10,392.5,13.3,392.5L13.3,392.5z"/>
			</g>
			<g>
				<path fill="#FFFFFF" d="M13.3,376.5c3.3,0,3.3-5,0-5S10,376.5,13.3,376.5L13.3,376.5z"/>
			</g>
			<g>
				<path fill="#FFFFFF" d="M13.3,370.5c3.3,0,3.3-5,0-5S10,370.5,13.3,370.5L13.3,370.5z"/>
			</g>
			<g>
				<path fill="#FFFFFF" d="M20.4,372.5c3.3,0,3.3-5,0-5S17.1,372.5,20.4,372.5L20.4,372.5z"/>
			</g>
			<g>
				<path fill="#FFFFFF" d="M59.1,357.5c3.3,0,3.3-5,0-5C55.8,352.5,55.8,357.5,59.1,357.5L59.1,357.5z"/>
			</g>
			<g>
				<path fill="#FFFFFF" d="M37.7,350.5c3.3,0,3.3-5,0-5C34.5,345.5,34.5,350.5,37.7,350.5L37.7,350.5z"/>
			</g>
			<g>
				<path fill="#FFFFFF" d="M81.5,360.5c3.3,0,3.3-5,0-5C78.3,355.5,78.3,360.5,81.5,360.5L81.5,360.5z"/>
			</g>
			<g>
				<path fill="#FFFFFF" d="M79.5,345.5c3.3,0,3.3-5,0-5S76.2,345.5,79.5,345.5L79.5,345.5z"/>
			</g>
			<g>
				<path fill="#FFFFFF" d="M96.8,342.5c3.3,0,3.3-5,0-5C93.5,337.5,93.5,342.5,96.8,342.5L96.8,342.5z"/>
			</g>
			<g>
				<path fill="#FFFFFF" d="M90.7,331.5c3.3,0,3.3-5,0-5S87.4,331.5,90.7,331.5L90.7,331.5z"/>
			</g>
			<g>
				<path fill="#FFFFFF" d="M106,327.5c3.3,0,3.3-5,0-5S102.7,327.5,106,327.5L106,327.5z"/>
			</g>
			<g>
				<path fill="#FFFFFF" d="M115.1,331.5c3.3,0,3.3-5,0-5C111.9,326.5,111.9,331.5,115.1,331.5L115.1,331.5z"/>
			</g>
			<g>
				<path fill="#FFFFFF" d="M354.5,308.5c3.3,0,3.3-5,0-5C351.2,303.5,351.2,308.5,354.5,308.5L354.5,308.5z"/>
			</g>
			<g>
				<path fill="#FFFFFF" d="M365.7,293.5c3.3,0,3.3-5,0-5S362.4,293.5,365.7,293.5L365.7,293.5z"/>
			</g>
			<g>
				<path fill="#FFFFFF" d="M369.7,309.5c3.3,0,3.3-5,0-5C366.5,304.5,366.5,309.5,369.7,309.5L369.7,309.5z"/>
			</g>
			<g>
				<path fill="#FFFFFF" d="M372.8,300.5c3.3,0,3.3-5,0-5S369.5,300.5,372.8,300.5L372.8,300.5z"/>
			</g>
			<g>
				<path fill="#FFFFFF" d="M387.1,299.5c3.3,0,3.3-5,0-5S383.8,299.5,387.1,299.5L387.1,299.5z"/>
			</g>
			<g>
				<path fill="#FFFFFF" d="M388.1,309.5c3.3,0,3.3-5,0-5S384.8,309.5,388.1,309.5L388.1,309.5z"/>
			</g>
			<g>
				<path fill="#FFFFFF" d="M402.3,309.5c3.3,0,3.3-5,0-5S399,309.5,402.3,309.5L402.3,309.5z"/>
			</g>
			<g>
				<path fill="#FFFFFF" d="M401.3,294.5c3.3,0,3.3-5,0-5S398,294.5,401.3,294.5L401.3,294.5z"/>
			</g>
			<g>
				<path fill="#FFFFFF" d="M382,284.5c3.3,0,3.3-5,0-5S378.7,284.5,382,284.5L382,284.5z"/>
			</g>
			<g>
				<path fill="#FFFFFF" d="M377.9,290.5c3.3,0,3.3-5,0-5S374.6,290.5,377.9,290.5L377.9,290.5z"/>
			</g>
			<g>
				<path fill="#FFFFFF" d="M356.5,285.5c3.3,0,3.3-5,0-5S353.2,285.5,356.5,285.5L356.5,285.5z"/>
			</g>
			<g>
				<path fill="#FFFFFF" d="M78.5,322.5c3.3,0,3.3-5,0-5C75.2,317.5,75.2,322.5,78.5,322.5L78.5,322.5z"/>
			</g>
			<g>
				<path fill="#FFFFFF" d="M57.1,321.5c3.3,0,3.3-5,0-5S53.8,321.5,57.1,321.5L57.1,321.5z"/>
			</g>
			<g>
				<path fill="#FFFFFF" d="M47.9,329.5c3.3,0,3.3-5,0-5C44.6,324.5,44.6,329.5,47.9,329.5L47.9,329.5z"/>
			</g>
			<g>
				<path fill="#FFFFFF" d="M31.6,329.5c3.3,0,3.3-5,0-5S28.3,329.5,31.6,329.5L31.6,329.5z"/>
			</g>
			<g>
				<path fill="#FFFFFF" d="M39.8,334.5c3.3,0,3.3-5,0-5C36.5,329.5,36.5,334.5,39.8,334.5L39.8,334.5z"/>
			</g>
			<g>
				<path fill="#FFFFFF" d="M21.4,348.5c3.3,0,3.3-5,0-5S18.2,348.5,21.4,348.5L21.4,348.5z"/>
			</g>
			<g>
				<path fill="#FFFFFF" d="M21.4,334.5c3.3,0,3.3-5,0-5S18.2,334.5,21.4,334.5L21.4,334.5z"/>
			</g>
			<g>
				<path fill="#FFFFFF" d="M13.3,351.5c3.3,0,3.3-5,0-5S10,351.5,13.3,351.5L13.3,351.5z"/>
			</g>
			<g>
				<path fill="#FFFFFF" d="M8.2,337.5c3.3,0,3.3-5,0-5S4.9,337.5,8.2,337.5L8.2,337.5z"/>
			</g>
			<g>
				<path fill="#FFFFFF" d="M10.2,406.5c3.3,0,3.3-5,0-5S7,406.5,10.2,406.5L10.2,406.5z"/>
			</g>
			<g>
				<path fill="#FFFFFF" d="M151.8,321.5c3.3,0,3.3-5,0-5C148.5,316.5,148.5,321.5,151.8,321.5L151.8,321.5z"/>
			</g>
			<g>
				<path fill="#FFFFFF" d="M136.5,301.5c3.3,0,3.3-5,0-5C133.2,296.5,133.2,301.5,136.5,301.5L136.5,301.5z"/>
			</g>
			<g>
				<path fill="#FFFFFF" d="M173.2,302.5c3.3,0,3.3-5,0-5S169.9,302.5,173.2,302.5L173.2,302.5z"/>
			</g>
			<g>
				<path fill="#FFFFFF" d="M173.2,293.5c3.3,0,3.3-5,0-5S169.9,293.5,173.2,293.5L173.2,293.5z"/>
			</g>
			<g>
				<path fill="#FFFFFF" d="M245.5,293.5c3.3,0,3.3-5,0-5C242.2,288.5,242.2,293.5,245.5,293.5L245.5,293.5z"/>
			</g>
			<g>
				<path fill="#FFFFFF" d="M178.3,320.5c3.3,0,3.3-5,0-5S175,320.5,178.3,320.5L178.3,320.5z"/>
			</g>
			<g>
				<path fill="#FFFFFF" d="M223.1,316.5c3.3,0,3.3-5,0-5C219.8,311.5,219.8,316.5,223.1,316.5L223.1,316.5z"/>
			</g>
			<g>
				<path fill="#FFFFFF" d="M254.7,314.5c3.3,0,3.3-5,0-5S251.4,314.5,254.7,314.5L254.7,314.5z"/>
			</g>
			<g>
				<path fill="#FFFFFF" d="M285.2,300.5c3.3,0,3.3-5,0-5S281.9,300.5,285.2,300.5L285.2,300.5z"/>
			</g>
			<g>
				<path fill="#FFFFFF" d="M299.5,313.5c3.3,0,3.3-5,0-5S296.2,313.5,299.5,313.5L299.5,313.5z"/>
			</g>
			<g>
				<path fill="#FFFFFF" d="M342.2,303.5c3.3,0,3.3-5,0-5S339,303.5,342.2,303.5L342.2,303.5z"/>
			</g>
			<g>
				<path fill="#FFFFFF" d="M394.2,289.5c3.3,0,3.3-5,0-5C390.9,284.5,390.9,289.5,394.2,289.5L394.2,289.5z"/>
			</g>
			<g>
				<path fill="#FFFFFF" d="M414.6,294.5c3.3,0,3.3-5,0-5C411.3,289.5,411.3,294.5,414.6,294.5L414.6,294.5z"/>
			</g>
			<g>
				<path fill="#FFFFFF" d="M414.6,311.5c3.3,0,3.3-5,0-5C411.3,306.5,411.3,311.5,414.6,311.5L414.6,311.5z"/>
			</g>
		</g>
		<g>
			<g>
				<path fill="#FFFFFF" d="M822.5,400.5c-3.3,0-3.3-5,0-5C825.8,395.5,825.8,400.5,822.5,400.5L822.5,400.5z"/>
			</g>
			<g>
				<path fill="#FFFFFF" d="M798,381.5c-3.3,0-3.3-5,0-5C801.3,376.5,801.3,381.5,798,381.5L798,381.5z"/>
			</g>
			<g>
				<path fill="#FFFFFF" d="M755.3,346.5c-3.3,0-3.3-5,0-5C758.5,341.5,758.5,346.5,755.3,346.5L755.3,346.5z"/>
			</g>
			<g>
				<path fill="#FFFFFF" d="M792.9,367.5c-3.3,0-3.3-5,0-5C796.2,362.5,796.2,367.5,792.9,367.5L792.9,367.5z"/>
			</g>
			<g>
				<path fill="#FFFFFF" d="M812.3,359.5c-3.3,0-3.3-5,0-5C815.6,354.5,815.6,359.5,812.3,359.5L812.3,359.5z"/>
			</g>
			<g>
				<path fill="#FFFFFF" d="M817.4,380.5c-3.3,0-3.3-5,0-5C820.7,375.5,820.7,380.5,817.4,380.5L817.4,380.5z"/>
			</g>
			<g>
				<path fill="#FFFFFF" d="M825.5,360.5c-3.3,0-3.3-5,0-5C828.8,355.5,828.8,360.5,825.5,360.5L825.5,360.5z"/>
			</g>
			<g>
				<path fill="#FFFFFF" d="M810.3,342.5c-3.3,0-3.3-5,0-5C813.5,337.5,813.5,342.5,810.3,342.5L810.3,342.5z"/>
			</g>
			<g>
				<path fill="#FFFFFF" d="M791.9,355.5c-3.3,0-3.3-5,0-5C795.2,350.5,795.2,355.5,791.9,355.5L791.9,355.5z"/>
			</g>
			<g>
				<path fill="#FFFFFF" d="M778.7,330.5c-3.3,0-3.3-5,0-5S782,330.5,778.7,330.5L778.7,330.5z"/>
			</g>
			<g>
				<path fill="#FFFFFF" d="M772.6,362.5c-3.3,0-3.3-5,0-5C775.9,357.5,775.9,362.5,772.6,362.5L772.6,362.5z"/>
			</g>
			<g>
				<path fill="#FFFFFF" d="M775.6,347.5c-3.3,0-3.3-5,0-5C778.9,342.5,778.9,347.5,775.6,347.5L775.6,347.5z"/>
			</g>
			<g>
				<path fill="#FFFFFF" d="M790.9,340.5c-3.3,0-3.3-5,0-5C794.2,335.5,794.2,340.5,790.9,340.5L790.9,340.5z"/>
			</g>
			<g>
				<path fill="#FFFFFF" d="M753.2,323.5c-3.3,0-3.3-5,0-5S756.5,323.5,753.2,323.5L753.2,323.5z"/>
			</g>
			<g>
				<path fill="#FFFFFF" d="M765.4,312.5c-3.3,0-3.3-5,0-5C768.7,307.5,768.7,312.5,765.4,312.5L765.4,312.5z"/>
			</g>
			<g>
				<path fill="#FFFFFF" d="M764.4,333.5c-3.3,0-3.3-5,0-5C767.7,328.5,767.7,333.5,764.4,333.5L764.4,333.5z"/>
			</g>
			<g>
				<path fill="#FFFFFF" d="M741,334.5c-3.3,0-3.3-5,0-5C744.3,329.5,744.3,334.5,741,334.5L741,334.5z"/>
			</g>
			<g>
				<path fill="#FFFFFF" d="M736.9,317.5c-3.3,0-3.3-5,0-5C740.2,312.5,740.2,317.5,736.9,317.5L736.9,317.5z"/>
			</g>
			<g>
				<path fill="#FFFFFF" d="M747.1,311.5c-3.3,0-3.3-5,0-5C750.4,306.5,750.4,311.5,747.1,311.5L747.1,311.5z"/>
			</g>
			<g>
				<path fill="#FFFFFF" d="M715.5,310.5c-3.3,0-3.3-5,0-5C718.8,305.5,718.8,310.5,715.5,310.5L715.5,310.5z"/>
			</g>
			<g>
				<path fill="#FFFFFF" d="M715.5,304.5c-3.3,0-3.3-5,0-5C718.8,299.5,718.8,304.5,715.5,304.5L715.5,304.5z"/>
			</g>
			<g>
				<path fill="#FFFFFF" d="M720.6,323.5c-3.3,0-3.3-5,0-5C723.9,318.5,723.9,323.5,720.6,323.5L720.6,323.5z"/>
			</g>
			<g>
				<path fill="#FFFFFF" d="M728.8,309.5c-3.3,0-3.3-5,0-5C732.1,304.5,732.1,309.5,728.8,309.5L728.8,309.5z"/>
			</g>
			<g>
				<path fill="#FFFFFF" d="M698.2,310.5c-3.3,0-3.3-5,0-5C701.5,305.5,701.5,310.5,698.2,310.5L698.2,310.5z"/>
			</g>
			<g>
				<path fill="#FFFFFF" d="M690.1,295.5c-3.3,0-3.3-5,0-5C693.4,290.5,693.4,295.5,690.1,295.5L690.1,295.5z"/>
			</g>
			<g>
				<path fill="#FFFFFF" d="M677.9,315.5c-3.3,0-3.3-5,0-5C681.1,310.5,681.1,315.5,677.9,315.5L677.9,315.5z"/>
			</g>
			<g>
				<path fill="#FFFFFF" d="M703.3,320.5c-3.3,0-3.3-5,0-5C706.6,315.5,706.6,320.5,703.3,320.5L703.3,320.5z"/>
			</g>
			<g>
				<path fill="#FFFFFF" d="M679.9,303.5c-3.3,0-3.3-5,0-5C683.2,298.5,683.2,303.5,679.9,303.5L679.9,303.5z"/>
			</g>
			<g>
				<path fill="#FFFFFF" d="M654.4,291.5c-3.3,0-3.3-5,0-5C657.7,286.5,657.7,291.5,654.4,291.5L654.4,291.5z"/>
			</g>
			<g>
				<path fill="#FFFFFF" d="M662.6,308.5c-3.3,0-3.3-5,0-5C665.9,303.5,665.9,308.5,662.6,308.5L662.6,308.5z"/>
			</g>
			<g>
				<path fill="#FFFFFF" d="M649.4,317.5c-3.3,0-3.3-5,0-5C652.6,312.5,652.6,317.5,649.4,317.5L649.4,317.5z"/>
			</g>
			<g>
				<path fill="#FFFFFF" d="M640.2,299.5c-3.3,0-3.3-5,0-5C643.5,294.5,643.5,299.5,640.2,299.5L640.2,299.5z"/>
			</g>
			<g>
				<path fill="#FFFFFF" d="M653.4,303.5c-3.3,0-3.3-5,0-5C656.7,298.5,656.7,303.5,653.4,303.5L653.4,303.5z"/>
			</g>
			<g>
				<path fill="#FFFFFF" d="M632,309.5c-3.3,0-3.3-5,0-5C635.3,304.5,635.3,309.5,632,309.5L632,309.5z"/>
			</g>
			<g>
				<path fill="#FFFFFF" d="M641.2,292.5c-3.3,0-3.3-5,0-5S644.5,292.5,641.2,292.5L641.2,292.5z"/>
			</g>
			<g>
				<path fill="#FFFFFF" d="M629,292.5c-3.3,0-3.3-5,0-5C632.3,287.5,632.3,292.5,629,292.5L629,292.5z"/>
			</g>
			<g>
				<path fill="#FFFFFF" d="M620.8,305.5c-3.3,0-3.3-5,0-5S624.1,305.5,620.8,305.5L620.8,305.5z"/>
			</g>
			<g>
				<path fill="#FFFFFF" d="M609.6,292.5c-0.3,0-0.7,0-1,0c-1.4,0-2.5-1.1-2.5-2.5s1.2-2.5,2.5-2.5c0.3,0,0.7,0,1,0
					c1.4,0,2.5,1.1,2.5,2.5S611,292.5,609.6,292.5L609.6,292.5z"/>
			</g>
			<g>
				<path fill="#FFFFFF" d="M607.6,311.5c-3.3,0-3.3-5,0-5C610.9,306.5,610.9,311.5,607.6,311.5L607.6,311.5z"/>
			</g>
			<g>
				<path fill="#FFFFFF" d="M603.5,302.5c-3.3,0-3.3-5,0-5C606.8,297.5,606.8,302.5,603.5,302.5L603.5,302.5z"/>
			</g>
			<g>
				<path fill="#FFFFFF" d="M592.3,307.5c-3.3,0-3.3-5,0-5C595.6,302.5,595.6,307.5,592.3,307.5L592.3,307.5z"/>
			</g>
			<g>
				<path fill="#FFFFFF" d="M584,290.3c0.5,0.7-0.4-0.2,0.3,0.3c-0.1-0.1-0.2-0.1-0.3-0.2c0.4,0.1,0.4,0.1,0.1,0.1
					c-0.1,0-0.2-0.1-0.3-0.1c0.4,0,0.5,0.1,0.2,0c-0.3,0-0.2,0,0.2,0c-0.1,0-0.2,0.1-0.3,0.1c-1.3,0.4-2.8-0.5-3.1-1.7
					c-0.4-1.4,0.5-2.7,1.8-3.1c1-0.3,2-0.3,3,0c1.2,0.3,2.1,1.1,2.9,2.1c0.8,1.1,0.2,2.8-0.9,3.4C586.2,291.9,584.8,291.3,584,290.3
					L584,290.3z"/>
			</g>
			<g>
				<path fill="#FFFFFF" d="M549.5,288.5c-3.3,0-3.3-5,0-5S552.8,288.5,549.5,288.5L549.5,288.5z"/>
			</g>
			<g>
				<path fill="#FFFFFF" d="M575,302.5c-3.3,0-3.3-5,0-5S578.3,302.5,575,302.5L575,302.5z"/>
			</g>
			<g>
				<path fill="#FFFFFF" d="M573,312.5c-3.3,0-3.3-5,0-5C576.3,307.5,576.3,312.5,573,312.5L573,312.5z"/>
			</g>
			<g>
				<path fill="#FFFFFF" d="M557.7,310.5c-3.3,0-3.3-5,0-5C561,305.5,561,310.5,557.7,310.5L557.7,310.5z"/>
			</g>
			<g>
				<path fill="#FFFFFF" d="M564.8,293.5c-3.3,0-3.3-5,0-5S568.1,293.5,564.8,293.5L564.8,293.5z"/>
			</g>
			<g>
				<path fill="#FFFFFF" d="M545.5,304.5c-3.3,0-3.3-5,0-5C548.8,299.5,548.8,304.5,545.5,304.5L545.5,304.5z"/>
			</g>
			<g>
				<path fill="#FFFFFF" d="M544.5,298.5c-3.3,0-3.3-5,0-5S547.7,298.5,544.5,298.5L544.5,298.5z"/>
			</g>
			<g>
				<path fill="#FFFFFF" d="M529.2,294.5c-3.3,0-3.3-5,0-5S532.5,294.5,529.2,294.5L529.2,294.5z"/>
			</g>
			<g>
				<path fill="#FFFFFF" d="M540.4,292.5c-3.3,0-3.3-5,0-5C543.7,287.5,543.7,292.5,540.4,292.5L540.4,292.5z"/>
			</g>
			<g>
				<path fill="#FFFFFF" d="M515.9,287.5c-3.3,0-3.3-5,0-5C519.2,282.5,519.2,287.5,515.9,287.5L515.9,287.5z"/>
			</g>
			<g>
				<path fill="#FFFFFF" d="M529.2,310.5c-3.3,0-3.3-5,0-5S532.5,310.5,529.2,310.5L529.2,310.5z"/>
			</g>
			<g>
				<path fill="#FFFFFF" d="M531.2,304.5c-3.3,0-3.3-5,0-5C534.5,299.5,534.5,304.5,531.2,304.5L531.2,304.5z"/>
			</g>
			<g>
				<path fill="#FFFFFF" d="M502.7,312.5c-3.3,0-3.3-5,0-5S506,312.5,502.7,312.5L502.7,312.5z"/>
			</g>
			<g>
				<path fill="#FFFFFF" d="M513.9,297.5c-3.3,0-3.3-5,0-5C517.2,292.5,517.2,297.5,513.9,297.5L513.9,297.5z"/>
			</g>
			<g>
				<path fill="#FFFFFF" d="M515.9,306.5c-3.3,0-3.3-5,0-5C519.2,301.5,519.2,306.5,515.9,306.5L515.9,306.5z"/>
			</g>
			<g>
				<path fill="#FFFFFF" d="M501.7,294.5c-3.3,0-3.3-5,0-5S505,294.5,501.7,294.5L501.7,294.5z"/>
			</g>
			<g>
				<path fill="#FFFFFF" d="M491.5,295.5c-3.3,0-3.3-5,0-5S494.8,295.5,491.5,295.5L491.5,295.5z"/>
			</g>
			<g>
				<path fill="#FFFFFF" d="M827.1,420c0-0.3,0-0.7,0-1c0-1.4,1.2-2.5,2.5-2.5s2.5,1.1,2.5,2.5c0,0.3,0,0.7,0,1
					c0,1.4-1.2,2.5-2.5,2.5S827.1,421.4,827.1,420L827.1,420z"/>
			</g>
			<g>
				<path fill="#FFFFFF" d="M817.4,408.5c-3.3,0-3.3-5,0-5C820.7,403.5,820.7,408.5,817.4,408.5L817.4,408.5z"/>
			</g>
			<g>
				<path fill="#FFFFFF" d="M807.2,395.5c-3.3,0-3.3-5,0-5C810.5,390.5,810.5,395.5,807.2,395.5L807.2,395.5z"/>
			</g>
			<g>
				<path fill="#FFFFFF" d="M789.9,386.5c-3.3,0-3.3-5,0-5C793.2,381.5,793.2,386.5,789.9,386.5L789.9,386.5z"/>
			</g>
			<g>
				<path fill="#FFFFFF" d="M778.7,374.5c-3.3,0-3.3-5,0-5S782,374.5,778.7,374.5L778.7,374.5z"/>
			</g>
			<g>
				<path fill="#FFFFFF" d="M808.2,368.5c-3.3,0-3.3-5,0-5C811.5,363.5,811.5,368.5,808.2,368.5L808.2,368.5z"/>
			</g>
			<g>
				<path fill="#FFFFFF" d="M828.6,392.5c-3.3,0-3.3-5,0-5C831.9,387.5,831.9,392.5,828.6,392.5L828.6,392.5z"/>
			</g>
			<g>
				<path fill="#FFFFFF" d="M828.6,376.5c-3.3,0-3.3-5,0-5C831.9,371.5,831.9,376.5,828.6,376.5L828.6,376.5z"/>
			</g>
			<g>
				<path fill="#FFFFFF" d="M828.6,370.5c-3.3,0-3.3-5,0-5C831.9,365.5,831.9,370.5,828.6,370.5L828.6,370.5z"/>
			</g>
			<g>
				<path fill="#FFFFFF" d="M821.5,372.5c-3.3,0-3.3-5,0-5C824.7,367.5,824.7,372.5,821.5,372.5L821.5,372.5z"/>
			</g>
			<g>
				<path fill="#FFFFFF" d="M782.8,357.5c-3.3,0-3.3-5,0-5C786,352.5,786,357.5,782.8,357.5L782.8,357.5z"/>
			</g>
			<g>
				<path fill="#FFFFFF" d="M804.1,350.5c-3.3,0-3.3-5,0-5S807.4,350.5,804.1,350.5L804.1,350.5z"/>
			</g>
			<g>
				<path fill="#FFFFFF" d="M760.4,360.5c-3.3,0-3.3-5,0-5C763.6,355.5,763.6,360.5,760.4,360.5L760.4,360.5z"/>
			</g>
			<g>
				<path fill="#FFFFFF" d="M762.4,345.5c-3.3,0-3.3-5,0-5C765.7,340.5,765.7,345.5,762.4,345.5L762.4,345.5z"/>
			</g>
			<g>
				<path fill="#FFFFFF" d="M745.1,342.5c-3.3,0-3.3-5,0-5C748.4,337.5,748.4,342.5,745.1,342.5L745.1,342.5z"/>
			</g>
			<g>
				<path fill="#FFFFFF" d="M751.2,331.5c-3.3,0-3.3-5,0-5C754.5,326.5,754.5,331.5,751.2,331.5L751.2,331.5z"/>
			</g>
			<g>
				<path fill="#FFFFFF" d="M735.9,327.5c-3.3,0-3.3-5,0-5C739.2,322.5,739.2,327.5,735.9,327.5L735.9,327.5z"/>
			</g>
			<g>
				<path fill="#FFFFFF" d="M726.7,331.5c-3.3,0-3.3-5,0-5C730,326.5,730,331.5,726.7,331.5L726.7,331.5z"/>
			</g>
			<g>
				<path fill="#FFFFFF" d="M487.4,308.5c-3.3,0-3.3-5,0-5S490.7,308.5,487.4,308.5L487.4,308.5z"/>
			</g>
			<g>
				<path fill="#FFFFFF" d="M476.2,293.5c-3.3,0-3.3-5,0-5S479.5,293.5,476.2,293.5L476.2,293.5z"/>
			</g>
			<g>
				<path fill="#FFFFFF" d="M472.1,309.5c-3.3,0-3.3-5,0-5S475.4,309.5,472.1,309.5L472.1,309.5z"/>
			</g>
			<g>
				<path fill="#FFFFFF" d="M469.1,300.5c-3.3,0-3.3-5,0-5S472.4,300.5,469.1,300.5L469.1,300.5z"/>
			</g>
			<g>
				<path fill="#FFFFFF" d="M454.8,299.5c-3.3,0-3.3-5,0-5C458.1,294.5,458.1,299.5,454.8,299.5L454.8,299.5z"/>
			</g>
			<g>
				<path fill="#FFFFFF" d="M453.8,309.5c-3.3,0-3.3-5,0-5S457.1,309.5,453.8,309.5L453.8,309.5z"/>
			</g>
			<g>
				<path fill="#FFFFFF" d="M439.6,309.5c-3.3,0-3.3-5,0-5C442.8,304.5,442.8,309.5,439.6,309.5L439.6,309.5z"/>
			</g>
			<g>
				<path fill="#FFFFFF" d="M440.6,294.5c-3.3,0-3.3-5,0-5C443.9,289.5,443.9,294.5,440.6,294.5L440.6,294.5z"/>
			</g>
			<g>
				<path fill="#FFFFFF" d="M459.9,284.5c-3.3,0-3.3-5,0-5C463.2,279.5,463.2,284.5,459.9,284.5L459.9,284.5z"/>
			</g>
			<g>
				<path fill="#FFFFFF" d="M464,290.5c-3.3,0-3.3-5,0-5S467.3,290.5,464,290.5L464,290.5z"/>
			</g>
			<g>
				<path fill="#FFFFFF" d="M485.4,285.5c-3.3,0-3.3-5,0-5C488.7,280.5,488.7,285.5,485.4,285.5L485.4,285.5z"/>
			</g>
			<g>
				<path fill="#FFFFFF" d="M763.4,322.5c-3.3,0-3.3-5,0-5S766.7,322.5,763.4,322.5L763.4,322.5z"/>
			</g>
			<g>
				<path fill="#FFFFFF" d="M784.8,321.5c-3.3,0-3.3-5,0-5C788.1,316.5,788.1,321.5,784.8,321.5L784.8,321.5z"/>
			</g>
			<g>
				<path fill="#FFFFFF" d="M794,329.5c-3.3,0-3.3-5,0-5S797.2,329.5,794,329.5L794,329.5z"/>
			</g>
			<g>
				<path fill="#FFFFFF" d="M810.3,329.5c-3.3,0-3.3-5,0-5C813.5,324.5,813.5,329.5,810.3,329.5L810.3,329.5z"/>
			</g>
			<g>
				<path fill="#FFFFFF" d="M802.1,334.5c-3.3,0-3.3-5,0-5C805.4,329.5,805.4,334.5,802.1,334.5L802.1,334.5z"/>
			</g>
			<g>
				<path fill="#FFFFFF" d="M820.4,348.5c-3.3,0-3.3-5,0-5C823.7,343.5,823.7,348.5,820.4,348.5L820.4,348.5z"/>
			</g>
			<g>
				<path fill="#FFFFFF" d="M820.4,334.5c-3.3,0-3.3-5,0-5C823.7,329.5,823.7,334.5,820.4,334.5L820.4,334.5z"/>
			</g>
			<g>
				<path fill="#FFFFFF" d="M828.6,351.5c-3.3,0-3.3-5,0-5C831.9,346.5,831.9,351.5,828.6,351.5L828.6,351.5z"/>
			</g>
			<g>
				<path fill="#FFFFFF" d="M833.7,337.5c-3.3,0-3.3-5,0-5C837,332.5,837,337.5,833.7,337.5L833.7,337.5z"/>
			</g>
			<g>
				<path fill="#FFFFFF" d="M831.6,406.5c-3.3,0-3.3-5,0-5C834.9,401.5,834.9,406.5,831.6,406.5L831.6,406.5z"/>
			</g>
			<g>
				<path fill="#FFFFFF" d="M690.1,321.5c-3.3,0-3.3-5,0-5C693.4,316.5,693.4,321.5,690.1,321.5L690.1,321.5z"/>
			</g>
			<g>
				<path fill="#FFFFFF" d="M705.4,301.5c-3.3,0-3.3-5,0-5C708.6,296.5,708.6,301.5,705.4,301.5L705.4,301.5z"/>
			</g>
			<g>
				<path fill="#FFFFFF" d="M668.7,302.5c-3.3,0-3.3-5,0-5C672,297.5,672,302.5,668.7,302.5L668.7,302.5z"/>
			</g>
			<g>
				<path fill="#FFFFFF" d="M668.7,293.5c-3.3,0-3.3-5,0-5C672,288.5,672,293.5,668.7,293.5L668.7,293.5z"/>
			</g>
			<g>
				<path fill="#FFFFFF" d="M596.4,293.5c-3.3,0-3.3-5,0-5C599.7,288.5,599.7,293.5,596.4,293.5L596.4,293.5z"/>
			</g>
			<g>
				<path fill="#FFFFFF" d="M663.6,320.5c-3.3,0-3.3-5,0-5C666.9,315.5,666.9,320.5,663.6,320.5L663.6,320.5z"/>
			</g>
			<g>
				<path fill="#FFFFFF" d="M618.8,316.5c-3.3,0-3.3-5,0-5C622.1,311.5,622.1,316.5,618.8,316.5L618.8,316.5z"/>
			</g>
			<g>
				<path fill="#FFFFFF" d="M587.2,314.5c-3.3,0-3.3-5,0-5C590.5,309.5,590.5,314.5,587.2,314.5L587.2,314.5z"/>
			</g>
			<g>
				<path fill="#FFFFFF" d="M556.7,300.5c-3.3,0-3.3-5,0-5C560,295.5,560,300.5,556.7,300.5L556.7,300.5z"/>
			</g>
			<g>
				<path fill="#FFFFFF" d="M542.4,313.5c-3.3,0-3.3-5,0-5C545.7,308.5,545.7,313.5,542.4,313.5L542.4,313.5z"/>
			</g>
			<g>
				<path fill="#FFFFFF" d="M499.6,303.5c-3.3,0-3.3-5,0-5S502.9,303.5,499.6,303.5L499.6,303.5z"/>
			</g>
			<g>
				<path fill="#FFFFFF" d="M447.7,289.5c-3.3,0-3.3-5,0-5S451,289.5,447.7,289.5L447.7,289.5z"/>
			</g>
			<g>
				<path fill="#FFFFFF" d="M427.3,294.5c-3.3,0-3.3-5,0-5S430.6,294.5,427.3,294.5L427.3,294.5z"/>
			</g>
			<g>
				<path fill="#FFFFFF" d="M427.3,311.5c-3.3,0-3.3-5,0-5S430.6,311.5,427.3,311.5L427.3,311.5z"/>
			</g>
		</g>
	</g>
</g>
</svg>
